<svg width="41" height="40" viewBox="0 0 41 40" fill="none" xmlns="http://www.w3.org/2000/svg"><path d="M3.962 4.271C2.173 2.219-1.095 4.159.365 7.399c.976 2.16 2.856 7.436 5.485 11.236 2.628 3.8 5.432 3.396 8.26 4.316l2.032 1.052L30.05 40l2.812-2.448.016-.012c-.412-.472-13.06-15.024-18.064-20.777-4.94-5.696-9.98-11.492-10.852-12.492zm33.384 3l-4.852 5.584a.856.856 0 01-1.208.084l-.172-.148a.855.855 0 01-.084-1.208l4.876-5.608c.8-.92.42-1.732-.172-2.248-.592-.516-1.452-.78-2.252.14l-4.876 5.608a.855.855 0 01-1.208.084l-.172-.148a.856.856 0 01-.084-1.208l4.852-5.584C33.426.97 31.03-1.013 29.63.595c-1.676 1.928-4.636 5.328-4.636 5.328-2.584 2.952-2.548 4.336-2.18 6.272.296 1.564.732 2.684-.876 4.532l-2.368 2.724 2.484 2.857 2.712-3.12c1.604-1.845 2.78-1.573 4.364-1.497 1.972.096 3.348-.06 5.908-3.028l4.637-5.332c1.4-1.608-.9-3.708-2.332-2.06h.003z" fill="#000"/><path d="M14.554 25.224L3.85 37.54 6.678 40l10.484-12.06-2.156-2.484-.452-.232z" fill="#000"/></svg>