<svg width="276" height="90" viewBox="0 0 276 90" fill="none" xmlns="http://www.w3.org/2000/svg"><path d="M196.24 79.433c-.288-.288-.464-.672-.704-.992-.176-.383-.32-.463-.448-.831-.064-.352-.256-.56-.016-.752.176-.128.224.384.656.496.16.032.32.32.688.368.32.08.224.192.512.192.384.032.64.032.88.16.256.175.512.207.592.288.256.175.352.368.448.512.032.208.192.383.176.655 0 .288-.016.56-.304.848-.288.272-.448.352-.8.384-.208.064-.592-.176-.832-.32-.032-.288-.224-.176-.416-.4-.176-.224-.16-.304-.416-.592l-.016-.016zm11.871-2.703c.224-.256.48-.48.8-.832.224-.256.4-.608.592-.416.128.128.032.288-.176.64-.096.256-.192.288-.32.48-.112.256-.224.304-.368.496-.16.288-.352.224-.352.48-.112.224-.32.32-.4.496-.176.224-.272.368-.384.416-.256.112-.256.256-.368.496-.208.271-.352.223-.416.48-.112.127-.256.063-.384.383-.112.272-.304.112-.4.416-.176.32-.4.256-.544.48-.16.272-.288.368-.464.56-.208.16-.4.16-.464.448-.112.08-.368.304-.464.448l-.64.576c-.288.256-.56.32-.672.56-.16.224-.448.304-.672.544-.272.08-.4.208-.592.416-.223.064-.319.16-.591.464-.224.272-.4.064-.56.368-.096.192-.304.288-.512.448-.128.096-.288-.064-.4.272-.176.192-.368.288-.464.304-.176.256-.4.272-.592.304-.176.032-.56-.08-.736-.224-.224-.224-.496-.192-.704-.544-.32-.176-.368-.464-.544-.704-.224-.272-.32-.512-.272-.736.112-.272-.016-.464.08-.672.096-.208.064-.576.304-.528.128.016.176.128.208.32.208.32.544.56.736.48.352-.064.416 0 .944-.368.208-.032.416-.08.704-.32.384-.032.416-.304.784-.448.208-.032.64-.448.768-.48.32-.128.464-.368.703-.448.32 0 .304-.192.592-.384.208-.224.416-.208.56-.368.256-.288.544-.224.704-.48.352-.288.672-.288.848-.592.176-.208.512-.272.848-.608.288-.224.48-.415.832-.607.256-.096.608-.512.832-.656.128-.176.64-.464.8-.656l.784-.688.032-.016zm-11.087-3.216c-.176-.192.032-.288.256-.272.224-.064.672.096 1.152.08.32-.032.32.128.672.112.128-.032.416.08.64.176.192.096.464.224.768.4.256.128.016.224.32.288.256.304.415.496.447.992.016.496-.223.736-.399.928-.368.192-.56.496-.928.384-.304-.112-.672-.112-.896-.352-.112-.272-.288-.288-.32-.592a2.04 2.04 0 00-.304-.8c-.192-.304-.288-.368-.496-.608-.032-.192-.224-.224-.368-.304-.192-.128-.384-.32-.512-.416l-.032-.016zm26.637 5.839c0 .64-.256.56-.688.672-.192.08-.352.064-.56.112-.224-.032-.32.128-.64.224-.128.032-.464.208-.704.352-.224.016-.224.112-.448.192-.271.032-.399.224-.559.288-.272-.096-.32.16-.656.304-.56.176-.768.352-.96.416-.128.064-.288-.096-.128-.224.16-.128.368-.352.544-.464.32-.096.128-.224.4-.448.128-.128.256-.208.56-.64.096-.176.416-.208.4-.512.16-.192.208-.224.303-.48.112-.191-.112-.271-.303-.207-.272 0-.752.191-1.056.271-.304-.16-.256.064-.656.16-.112.016-.304.16-.608.192-.272.08-.256.384-.224.608-.08.256.064.544.176.672.064.272.016.544.16.784 0 .512.288.976.256 1.312.064.416.256.8.208 1.088-.096.256.128.416.128.832 0 .288.08.56.064.832 0 .464-.064.688-.128.96-.208.384-.352.4-.752.448-.384.032-.496-.128-.64-.384-.096-.272-.192-.464-.16-.736 0-.176-.112-.304-.064-.416.096-.192.016-.288-.096-.448-.016-.176 0-.464-.112-.56-.032-.16.176-.176-.032-.512-.112-.16.128-.32-.096-.528-.16-.256-.016-.448-.096-.656-.192-.208-.032-.64-.16-.8-.096-.48-.208-1.056-.32-1.536-.016-.304-.272-.352-.416-.272-.32.096-.608.16-.832.352-.08.096-.352.08-.416.192-.208.096-.544.224-.736.384-.16.096-.416.272-.672.288-.416.096-.448-.112-.768-.352-.224-.176-.208-.4-.384-.512-.176-.192-.272-.384-.256-.688.016-.352.368-.096.592-.032.448.08.832-.16 1.072-.096.288-.096.656-.112 1.024-.208.224-.064.384.112.56-.128.208-.064.64-.112.784-.192.208-.08.176-.352.096-.496-.08-.367-.096-.591-.176-.96.08-.271-.112-.271-.16-.64.064-.175-.08-.447-.256-.575-.064-.096-.352-.064-.464-.368-.064-.096.224-.528.384-.576.208-.176.368-.288.656-.256.208.112.752.064 1.072.352.272.224.8.448.704.736.064.224 0 .304-.16.48-.096.112.016.192-.064.352-.064.288.08.496.064.64-.096.272.032.303.096.544.064.224.192.272.352.256.208-.016.208-.112.32-.096.112.015.224.031.272-.08.128-.064.192.096.304-.08.16-.064.112.032.368-.112.128-.08.256.08.384-.097.096-.032.192 0 .288-.08.176-.015.256-.127.368-.095.16-.064.192.064.288-.08.207-.112.287-.16.383-.304.128-.272.368-.496.576-.416.176.064.464.08.656.224.208.176.656.352.784.56.128.191.368.383.672.688.112.32.272.383.272.64l.016-.065zm3.456-3.887c-.224-.16-.448-.112-.4-.272.064-.208.4-.256.88-.304.496-.064 1.152-.08 1.344-.032.352-.016.304.272.688.08.112.032.192.112.464.112.176 0 .32.096.463.176.16.08.128.192.352.192.176 0 .256.176.384.352.224.352.368.496.304.864-.064.416-.064.688-.4.96-.128.208-.368.304-.735.4-.192.032-.592.096-.864-.096-.368-.256-.272-.464-.464-.592-.128-.304-.08-.464-.256-.416-.256-.304-.448-.416-.592-.592-.08-.224-.288-.384-.416-.384a10.346 10.346 0 00-.752-.416v-.032zm8.367 4.08c.256-.017.4-.273.672-.4.112-.017.464-.385.656-.416.304-.209.288-.385.64-.416.32-.096.384-.32.608-.464.416-.096.352-.32.592-.48.192-.224.288-.08.448-.368.112-.096.256-.112.288-.288.16-.192.224-.288.352-.384.256-.224.304.016.288.128-.064.224-.192.384-.448.768-.192.304-.368.256-.448.464-.016.288-.192.256-.256.448-.112.207-.304.303-.368.447-.096.273-.288.177-.352.416-.176.224-.384.496-.592.656-.32.096-.288.368-.416.4-.368.112-.304.352-.448.416-.464.224-.32.384-.576.512-.48.256-.48.512-.768.608-.416.112-.512.4-.704.464-.352.08-.352.384-.576.512-.288.032-.448.128-.512.368-.288.16-.352.272-.544.352-.224.096-.304.272-.512.352-.464 0-.32.224-.512.32-.384.096-.384.32-.544.288-.288.16-.304.224-.512.304a.938.938 0 00-.512.32c-.447.256-.559.464-.927.448-.304-.032-.464-.064-.832-.272-.272-.272-.512-.4-.848-.672-.16-.32-.48-.464-.64-.864-.272-.32-.352-.448-.288-.704.112-.304-.096-.32.064-.64.16-.176.192-.352.256-.448.096-.112.224-.208.368-.16.16.08.032.112.128.304.032.112.224.32.368.384.352.176.608.128.976.096.176-.016.544-.112.832-.16.304.032.496-.176.655-.208.368-.064.688-.208.944-.368.304 0 .656-.208.896-.4l.896-.464.88-.48c.448.032.4-.208.672-.368l.656-.384v.032zm9.631.047c-.064-.176.096-.32.032-.416-.016-.128-.096-.288 0-.448.128-.48.016-.415.016-.943-.096-.48-.096-.752-.064-1.232.16-.096.016-.32-.032-.448-.016-.272.192-.544-.032-.608-.064-.416-.096-.944-.576-.88-.096 0-.272 0-.304-.16-.032-.176.224-.368.448-.512.288-.208.496-.32.784-.32.224.064.272.192.464.16.256 0 .32.208.704.384.304.112.672.416.592.608-.112.288-.128.32-.08.448-.016.256 0 .4-.016.56.032.496.016.672.016 1.024-.128.4.096.976.064 1.343-.08.304.032.576.096.976.096.224-.096.256.032.656.112.304-.064.384.032.672.016.16-.112.592-.224.64-.224.256-.272.288-.592.272-.192.096-.32-.128-.448-.128-.208.032-.352-.112-.576-.448-.176-.304-.416-.8-.352-1.168l.016-.032zm6.735-5.183c-.096.304-.176.416-.08.656 0 .416.016.576-.032.896 0 .576.016.976-.032 1.424 0 .448.08.88-.016 1.407-.016.128.016.32 0 .56.016.448-.032.64 0 .96-.112.448 0 .512-.08.944.064.256-.128.544-.16.944-.016.288-.112.512-.272.928-.08.16-.32.544-.4.8-.016.304-.368.384-.48.736-.272.352-.352.48-.592.656a4.98 4.98 0 01-.687.56c-.112.08-.416.16-.512.288-.272.224-.416.016-.64.352-.208.128-.48.208-.688.32a4.02 4.02 0 01-.672.288c-.096.032-.496.208-.832.32-.224.08-.56.272-.656.064-.064-.128.128-.16.256-.208a1.57 1.57 0 00.384-.208c.128-.096.32-.16.416-.224.176-.064.304-.16.512-.352.032-.176.272-.208.496-.416.128-.16.272-.112.448-.384.032-.272.16-.208.368-.448.112-.112.256-.368.416-.64.304-.064.176-.288.272-.416.112-.192.208-.464.272-.608.256-.16.128-.32.208-.512.112-.272.16-.368.208-.768 0-.16.096-.416.128-.784-.032-.16.128-.368.08-.688-.064-.368.16-.512.064-.896-.112-.272.127-.384 0-.8-.096-.287.016-.543.016-.944.255-.32.031-.447-.016-.64-.016-.463 0-.607-.016-1.135.112-.272.08-.32-.016-.512-.128-.16.128-.208-.032-.464-.096-.128-.096-.304-.016-.4-.064-.32.032-.48-.08-.832-.176-.208-.096-.608-.416-.64-.256-.112-.576.032-.592-.256-.016-.208.176-.256.272-.304.16-.128.192-.288.512-.384.288-.112.384-.32.671-.272.272-.096.384.064.768.288.272.128.496.352.688.48.224.064.288.208.512.368.224.064.352.384.352.496.016.304-.288.304-.288.448l-.016-.048zm20.782 5.2c-.064.527-.4.735-.768.783-.288.192-.64.224-1.04.224-.256 0-.32-.16-.496 0-.192-.016-.352-.016-.656-.064-.304-.176-.368.064-.512-.032-.127.08-.223-.112-.399 0-.288-.032-.8.096-.992-.032-.464-.032-.56.064-1.024 0-.32 0-.32-.272-.608-.016-.352.08-.544-.032-.848.064-.4-.08-.784-.032-1.056-.016-.304 0-.496 0-.848.016-.464-.304-.496.064-.832.032-.352-.064-.592-.08-.848.032-.352.128-.688.016-.832.08-.304.128-.496.016-.848.096-.16.112-.416.096-.64.224-.175.128-.479.256-.703.224-.256-.016-.448-.128-.752-.304-.176-.112-.464-.304-.608-.384-.08-.064-.4-.192-.576-.496-.208-.128-.304-.64-.224-.88.032-.127-.016-.784.352-.832.176-.015.208.16.32.289.352.272.32.112.656.303.176.16.48.032.848.128.368 0 .863-.016 1.055.064.288.112.416-.127.8-.08.272.08.688.016.944-.016.224-.016.64-.016.944-.031.448-.017.592.255.928-.065.352 0 .544-.032.944-.032.256-.015.592.209.928.017.288-.177.512-.065.944-.16.256 0 .496.032.752-.032.352 0 .608.08.96-.08.368 0 .656-.097.96-.129.383-.111.479-.207.703-.271.256 0 .416-.032.848.08.288.08.608.112 1.024.192.352.064.752.287.864.4.176.111.4.511.368.687l-.032.016z" fill="#fff"/><path fill-rule="evenodd" clip-rule="evenodd" d="M221.933 56.796c-.928-.144-3.711-2.496-4.079-2.176-1.44.416-2.4 1.824-3.488 2.624-1.984 1.44-5.007 2.047-7.999 1.312-.72-1.104-1.552-2.144-1.6-3.936.448-.448.64-1.248 1.168-1.6 1.216-.848 2.56-1.216 3.792-2.032 2.287-1.535 6.063-5.12 7.567-7.423 1.744-2.656 2.016-5.615 2.912-9.167.783-3.104.863-6.943 1.599-10.335V20.72c.32-1.52.32-4.448 0-5.968v-4.655c-.24-1.12-.384-2.864-.432-3.936-2.399-1.584-3.839-1.04-7.423-1.024-.784-.992-1.856-1.28-1.888-3.056.912-.592 1.904-1.391 3.056-1.743.816-.24 3.04-.432 3.632-.288 1.568.352 2.735 0 3.935.576 2.24 1.071 2.992 3.583 3.632 6.255l.144 2.768c1.76 7.79.272 17.422-1.744 23.725-.272.832-.096 1.424-.432 2.176-.56 1.264-1.36 3.28-1.744 5.087-.432-.064-.176-.24-.432.144h.288l-.576 1.6c-.576 1.344-1.375 2.56-1.455 4.368 3.087 3.535 10.75 6.607 16.014 7.999 1.312.352 6.687 0 7.711-.288 2.912-.832 5.36-1.824 7.711-3.2.448-.256.864-1.008 1.312-1.311 1.04-.688 2.208-1.168 3.056-2.032.624 0 1.152.048 1.6.144.496.752.752 1.056.72 2.48-1.168 1.471-1.744 3.343-3.2 4.51-1.152.929-2.912 2.465-4.656 2.625 0 0-1.247.768-1.599.88l-.576-.144c-.112.032-.256.416-.288.431h-1.024c-.096.032-.256.416-.288.432-.688.369-2.048.08-2.768.433-2.016.991-8.943 1.503-11.359.88l-3.343-.145c-1.248-.4-2.928-.703-4.08-1.311-.256-.128-.624-.608-.88-.72-.848-.416-2.224-.656-2.48-1.6l-.016-.016zM56.414.45c1.072.016 2.432.384 2.624 1.311-6.463 6.784-13.054 12.511-17.182 21.102-1.152 2.4-3.696 6.672-2.768 10.48v1.743c1.632 5.2 5.648 7.887 10.767 9.615 1.92.8 4.192.784 5.536 1.168 2.16.624 5.327.224 6.99 1.312 1.057.704 4.448 6.56.88 6.703-.463.304-1.935.176-2.623 0-1.904-.464-6.655-1.168-6.991-1.168-5.088-1.088-9.28-3.504-11.215-4.943-1.584-1.184-4.752-5.248-5.088-5.536-.512-.688-.864-1.568-1.743-1.888-.144.112-.4.208-.576.288-1.088 1.776-1.792 3.888-2.912 5.68-3.168 5.12-7.807 10.367-12.67 13.822-1.185.848-2.545 2-3.792 2.768-4.944 3.056-10.463 4.704-14.415 3.936-.416-.704-1.52-2.8-1.168-3.632.128-.352.064-.24.288-.432.624-.464 1.488-.288 2.336-.576 2.16-.768 4.591-1.824 6.4-3.056a63.768 63.768 0 007.423-5.967c.271-.256 2.335-1.68 2.623-1.888l1.744-1.888c3.12-3.12 5.167-6.255 6.847-10.91 1.568-4.336 2.736-10.351 1.024-15.727-.816-2.527-1.6-5.44-2.911-7.567-2.256-3.664-5.664-5.135-9.168-7.567-.863-.592-1.151-1.76-1.887-2.48 0-.624.048-1.152.144-1.6.768-.496 1.504-1.328 2.48-1.6 1.423-.416 5.39.832 6.11 1.168 4.512 2.144 6.544 7.455 8.304 12.367.704 1.968.976 4.128 1.6 5.967.368 1.088.24 2.368 1.456 2.624 2.543-3.44 4.463-7.6 6.99-11.07 1.457-2 9.328-9.904 11.792-11.504.8-.511 1.712-1.023 2.767-1.023L56.414.45zm14.559 20.094c.96-.049 2.016-.064 2.624.287 1.856 1.088 1.312 4.784-.288 5.824-1.232.944-3.856.976-4.656.288-.8-.688-1.296-1.856-1.312-3.632.352-1.616 1.76-2.623 3.632-2.767zm198.411 3.343c.832-.032 1.472.064 1.744.576.448.336.448.784.72 1.312 1.424 2.688-.304 5.775-3.935 4.943h-1.312c-2.656-.752-2.384-1.231-3.792-3.055.048-.304.144-.8.288-1.024.64-2 2.624-2.144 4.8-2.624.528-.112 1.104.064 1.455-.144l.032.016zM124.535 41.79c1.616-.145 2.384-1.44 3.792-1.889 2.032-.671 3.952-.144 5.967 0 .72.928 1.648 1.584 2.176 2.768 1.312 2.944 1.728 6.72 4.224 8.447 2.144 1.472 7.023.48 7.423 3.632.112.16.08.144.144.432-.784.736-1.104 1.872-1.888 2.176-.976.848-3.008.736-4.799.72-1.84 0-3.904-.16-4.944-1.024-.848-.704-.832-2.256-1.312-3.344-.848-1.936-1.664-4.367-2.479-6.255-.176-.416-.048-.784-.288-1.168-.352-.576-1.12-.976-1.6-1.456h-2.336c-2.72.896-4.928 5.935-6.255 8.735-.448.96-.4 1.792-1.024 2.624-.736.992-2.992.432-3.056-1.024-.432-.672-.08-3.616 0-4.512.272-3.007.032-6.111.88-8.447v-1.888c.16-.511.56-1.135.72-1.743 1.104-.288 2.496-.608 3.631-.144.448 1.008.912 2.08 1.024 3.343v.016zm143.106-3.344c.736 0 .928.16 1.455.288.496.752 1.088 1.103 1.168 2.335-.608.64-1.663 2.816-1.887 3.792-.384 1.552.911 6.367 1.599 6.703h1.312c.72-.48 2.656.112 3.344.288.432.64 1.008.8 1.168 1.744-1.408 1.632-.816 3.712-4.08 3.632-.944.608-3.407-.16-4.079-.432-3.136-1.296-3.664-2.176-4.512-5.68v-1.6c-.176-.783-.56-2.207-.288-3.343.88-3.792 2.464-5.504 4.8-7.711v-.016zm-155.616 14.27c-.56-.384-1.024-1.088-1.6-1.456-2.144-1.36-5.488-2.895-6.847-4.943-1.248-1.872-1.248-6.127-2.336-7.567-.656-1.76-7.44-3.232-10.335-2.48-5.456 1.44-9.807 6.623-10.48 12.958-1.007.448-4.655 1.168-5.247 1.168-.767-.367-.608-1.232-.88-2.175-.4-1.392-1.487-4.72-.88-6.848.24-.8 1.697-5.183-.431-6.255-.272-.176-.832-.16-1.312-.144-.336.272-.912.384-1.168.736-2.16 2.8-4.767 12.815-2.032 16.894 2.224 3.328 6.08 3.12 9.311 1.024.576-.368 2.352-.928 2.752-1.456 0 0 .976 1.984 1.712 2.624.736.64 4.175 1.568 5.727.88 3.824-1.712 9.263-5.376 11.359-8.735 1.12.256 1.104 1.44 1.6 2.335.64 1.152 3.663 5.088 3.935 5.088 2.08 2.272 4.352 4.768 9.023 4.512.352-.4.72-.992 1.168-1.312.032-3.152-1.264-3.568-3.055-4.8l.016-.048zm-21.406-3.2c-.928.608-2.304.64-3.2 1.312-.88-.128-1.168-.496-1.744-.88-1.743-4.32 2.624-8.223 5.248-9.31.784-.337 1.904 0 2.624-.432 1.151.127 1.743.415 2.48.88.527 2.703-3.712 7.343-5.392 8.447l-.016-.017z" fill="#fff"/><path fill-rule="evenodd" clip-rule="evenodd" d="M118.568 46.013v.288h.144v-.288h-.144zM93.53 51.836v.288h.145v-.144h.144c-.144-.112-.032-.048-.288-.144zm58.091 1.168h.288v.144c-.256-.096-.144-.032-.288-.144zm30.572.288v.144h-.144c-.272.112.288.144.288.144-.096-.256-.032-.144-.144-.288zm-76.872 1.456l.432.432c.08-.192-.368-.352-.432-.432zm14.703 1.6c.256.176.48.16.72 0h-.72zm86.759 2.048c.144.112.032.048.288.144-.144-.112-.032-.048-.288-.144zm.448.144c.144.112.032.048.288.144-.144-.112-.032-.048-.288-.144z" fill="#fff"/><path fill-rule="evenodd" clip-rule="evenodd" d="M181.746 50.828c-1.408-.352-4.672-.176-5.824.736-.56 0-1.104-.016-1.456-.144.096-5.743 1.568-10.59 1.744-16.014.048-1.376 1.104-5.104.432-5.967-.656-.976-2.272-1.504-3.936-1.456-.224.176-.639.256-.879.432-1.808 1.456-.4 6.031-1.456 7.71v.145c-.72-.272-.784-.896-1.312-1.312-1.632-1.248-3.088-3.264-5.088-4.08-2.159-.88-4.815.112-6.399.576-.832.24-1.296 0-2.032.288-3.359 1.28-6.047 4.016-7.279 7.424-1.344 3.727-.432 8.303.72 11.358.048.288.096.576.144.88 1.184 1.872 6.671 3.184 10.047 2.336 1.488-.368 3.279-.096 4.367-.88.736.032.736.176 1.168.432l.144 2.624c-4.831 4.511-11.839 7.935-15.438 13.535-.752 1.183-.72 2.207-1.168 3.791-2.192 7.775 3.488 14.463 8.735 16.302 1.728.608 3.984.432 6.111.432 2.912 0 6.528-.848 8.064-1.775 2.559-1.552 4.047-4.416 4.879-7.248.48-1.648.032-3.343.432-5.087.368-1.632.384-5.728 0-7.423-.4-1.776-.256-3.76-.72-5.68-.512-2.128-1.184-4.271-1.168-6.847.176-.16.32-.368.432-.576 1.12-.272 2.144-.752 3.2-1.024 1.552-.4 2.864-.144 4.223-.576.288-1.376-.16-2.064-.719-2.912h.032zm-23.006-1.744c-1.728-.111-3.28.368-4.512-.431-1.871-1.216-1.328-6.976-.288-8.736.304-.511 1.616-1.503 2.176-1.743 1.04-.448 3.696-.848 4.368-1.024.672-.176 3.487-.016 5.087 1.024.976.64 3.072 1.648 3.488 2.767.352.816-1.424 3.408-1.888 4.08-.464.672-.64 1.424-1.168 2.032-1.152 1.36-5.055 2.175-7.279 2.032h.016zm12.079 26.638a14.474 14.474 0 01-5.392 6.4c-1.696 1.103-4.927 2.91-7.567 1.311-2.688-1.632-6.495-6.64-4.368-11.503.224-.512.88-.992 1.168-1.456 1.968-3.12 5.344-6.815 8.447-8.735 1.392-.864 3.808-1.392 5.536-1.744.416-.08 1.232.176 1.744-.144.336.096.448.176.72.288.752 3.648 1.119 12.335-.288 15.583z" fill="#fff"/></svg>