<svg width="207" height="110" viewBox="0 0 207 110" fill="none" xmlns="http://www.w3.org/2000/svg"><path d="M78.711 15.15c-.242.281.08.503.02.765-.08.686.282 1.21.444 1.593.14.14.242.282.242.524 0 .322-.343.705-.504.846-.242.141-.807.363-.948.282-.322.02-.705-.08-1.068-.16-.464-.061-.685-.142-1.048-.464-.363-.202-.766-.283-.948-.706-.262-.423-.463-.685-.886-.887-.464-.443-.404-.544-.787-.967-.12-.242-.443-.807-.705-1.048-.282-.363-.544-.887-.685-1.15.181-.544-.323-.604-.323-.846-.201-.443-.423-.867-.504-1.431-.322-.585-.282-1.109-.463-1.673-.182-.605.201-.786-.202-1.17-.06-.402-.202-1.128-.141-1.733.06-.322-.181-.504.242-.625.242-.08.282.343.322.545.02.383.363.685.363.907.02.342.202.887.504 1.149.363.282-.06.544.605 1.128.181.262-.02.605.463.787.101.16.343.665.504.806.141.604.706 1.048.887 1.25.161.665.625.584.867 1.048.201.282.705.423.887.705.161.262.343.06.725.182.263.12.363-.02.766-.323.182-.181.605-.343.686-.705.1-.162.423-.403.544-.726.141-.343.323-.363.403-.685.242-.363.343-.585.524-.464.242.141.06.444-.08.706-.182.443-.242.685-.323.967-.201.202-.1.625-.242.786-.262.424.06.444-.161.786h.02zm14.332-2.621c-.081.383 0 .806-.404 1.31-.342.363-.503.423-.947.585-.242.14-.625.02-.846-.121-.263.02-.343-.363-.545-.323-.161-.14-.262-.1-.423-.201-.343-.202-.403-.081-.927-.121-.544-.06-1.109.08-1.633.201-.403.101-.605.202-.685 0-.08-.201.12-.282.383-.443.322-.202.725-.403.846-.524.343-.141.444-.343.807-.686.463-.423.544-.524.665-1.128.08-.444-.323-.787-.403-1.069-.081-.282-.283-.524-.706-.927-.242-.322-.685-.464-1.028-.887-.282-.201-.685-.504-.947-.625-.323-.161-.605-.201-.544-.383.08-.181.18-.262.443-.201.504.08.766 0 1.129.181.524.282.947.06 1.189.282.363.283.685.202 1.149.464.282.282.786.282 1.068.625.282.242.363.504.847.786.322.181.181.464.705.887.343.282.343.726.585 1.129.02.403.282.624.181 1.209l.04-.02zm16.407 3.104c.182-.685.242-1.068.242-1.653 0-.584.081-.927.121-1.491.182-.363-.101-.887 0-1.25.182-.282-.02-.625.02-1.069.081-.524.061-.725-.101-.866-.201-.182-.362-.182-.584-.141-.161-.02-.363-.08-.524.1-.202.162-.423.02-.625.182-.282.08-.443-.182-.867.181-.242.202-.463 0-.887.262-.342.081-.604.262-.887.182-.423.08-.866-.363-1.128-.605-.323-.242-.928-.665-1.311-.585-.241-.06-.786.162-.866.585a3.843 3.843 0 00-.585.867c-.181.363-.524.423-.403.725-.161.242-.343.605-.322.766-.263.625-.525.948-.464 1.593-.202.665-.343 1.129-.262 1.653-.161.705.081 1.149-.08 1.632-.162.404.161.867.02 1.29.12.504.181.645.12 1.17-.06.443-.16.624-.322.846-.141.08-.544.464-.786.343-.625.12-1.028-.242-1.391-.585-.282-.201-.585-.988-.625-1.37-.161-.343 0-.948-.161-1.674-.08-.524.161-1.068 0-1.491-.121-.242 0-.786 0-1.17.322-.443.06-.523.06-.846.02-.262-.08-.504.101-1.028-.02-.322.141-.725.1-.988-.02-.362.243-.705.122-1.027-.08-.242-.08-.787.161-.988a1.31 1.31 0 00.161-.988c-.1-.201-.02-.363.121-.685 0-.242.202-.403.141-.726 0-.423.02-.766.162-1.129.12-.524.06-.584.06-1.128.02-.545-.06-.706-.12-1.33-.243-.404-.203-.867-.545-1.21-.262-.202-.242-.464.06-.464.343 0 .686.02.887.262.202 0 .585.504 1.069.665.322.323.544.545.866.807.061.282.343.262.363.524.081.262.061.463-.06.625-.262.14-.121.201-.182.342-.242.283-.181.444-.322.867-.101.343-.363.806-.323.968-.201.342-.342.846-.242 1.028 0 .504-.262.786-.181 1.028 0 .16-.1.766-.141.987.1.363.02.686-.101.988-.141.504-.141 1.411-.06 1.854 0 .182.322.504.403.121.08-.383.242-.342.504-.806.02-.443.403-.685.584-.967 0-.242.544-.726.625-.948.101-.322.323-.443.706-.846.161-.343.383-.464.786-.625.362-.162.504-.162.967-.162.161-.08.282.162.585-.02.504-.1.725-.08 1.37-.08.666-.02.867-.182 1.432-.262.544.1.967-.323 1.31-.424.342.02.725-.12 1.209-.403.202-.161.403-.524.242-.725.161-.545-.02-.766-.06-1.633.181-.383-.061-.383-.101-.786.08-.242-.262-.706-.202-1.069-.201-.362-.121-.463-.524-.685-.242-.262-.605-.403-1.129-.363-.342.06-.403-.322.101-.443.403-.182.867-.323 1.633-.282.403 0 .403-.06.806.16.282.122.625.122.867.364.161.322.544.201.725.544.101.161.202.242.323.584.101.323-.02.464-.101.726.081.323-.242.423-.101.968-.02.423-.08.725-.06 1.048-.161.181-.161.423.06.625.081.16.404-.06.545 0 .403-.06.625.08.887.06.423.202.645.1 1.229.242.202-.02.524.262.927.504.283.322.464.403.343.766.02.605-.443.665-.867.766-.604.262-.967-.06-1.33.141-.544-.02-.605.08-1.149.02-.242.02-.262.182-.423.343-.182.363.06.504-.02.625-.142.282.06.544.06.786.081.242-.101.282.06.725.142.343-.201.424.021 1.049.02.544-.202.705-.021 1.048.021.322-.1.725-.02 1.028-.141.725.081 1.149-.161 1.41-.242.444-.02.807-.322 1.25-.323.242-.021.343-.242.726-.162.363-.625 1.129-.766 1.37-.242.505-.424.505-.766.867-.444.283-.605.726-.887.787-.444-.06-.141.242-.766.463a7.325 7.325 0 01-1.552.887c-.363.06-.766.343-1.21.403-.766.262-1.149.424-1.632.444-.323.08-.323-.283-.061-.363.544-.262.968-.443 1.371-.726.282-.201.665-.524.846-.544.363-.282.585-.665.887-.806.424-.08.262-.323.706-.806.403-.162.403-.585.665-.887.101-.121.423-.766.504-.948.343-.282.403-.423.403-.988l.262-1.048.02-.04zm31.002-9.252a1.429 1.429 0 01-.343.766c-.363.1-.423.363-.786.323-.424.14-.665.08-.968-.101-.524-.141-.665-.141-.987-.141-.525.1-1.109-.162-1.573-.182-.584-.06-1.028-.181-1.592-.06-.524.161-.585-.06-.947.08-.283.101-.525.464-.424.706-.141.705-.02 1.108 0 1.552-.201.544-.08 1.25 0 1.572.061.464-.141.867.02 1.33-.06.444.182.766.182 1.33.121.706.181.807.181 1.23-.02.464 0 .686-.08.988.02.444-.141.544-.242.927-.262.262-.081.625-.363.887-.262.262-.242.726-.504.806-.464.242-.161.464-.605.726-.161.403-.544.424-.705.685-.323.363-.665.283-.786.585-.242.161-.403.323-.847.524-.464.08-.665.383-.867.383-.423-.02-.423.242-.866.323-.404-.02-.605.241-.887.262-.383-.06-.726.282-.928.181-.503.242-.544 0-.907.161-.443.141-.786.081-1.028.101-.705.02-.987.121-1.632.08-.262-.02-.605.061-.605-.16 0-.323.423-.202.887-.283.584-.1 1.391-.242 1.915-.363.584-.18.685-.262 1.29-.423.383-.06.685-.282 1.149-.544.685-.121.625-.282 1.108-.706.343-.322.625-.403.887-.846.101-.343.545-.403.585-.766.08-.262.363-.444.504-.806.121-.363.02-.686-.141-.605-.464-.02-.726-.08-.928-.262-.241-.161-.524-.343-.645-.665-.181-.403-.463-.887-.322-1.492.06-.343-.161-.584.121-1.068.201-.363.081-.927.423-1.23.323-.282.262-.725.686-.988.201-.08.584-.362.947-.403.262-.06.463.101.544.081.182.02.363.161.444-.161 0-.282.181-.464 0-.807-.142-.241.121-.463-.061-.786 0-.201-.101-.362-.02-.705.101-.282.06-.423-.101-.625-.201-.242-.363-.322-.685-.181-.423.08-.625-.02-.968.201-.141.08-.544.182-.866.282-.464-.06-.383.182-.807.242-.161.101-.524 0-.927.383-.363.101-.524.242-.847.363-.463-.02-.241.121-.604.282-.101.08-.625.363-1.028.544-.202.242-.424.383-.988.363-.504.101-.766-.06-1.229-.262-.504-.161-.706-.524-1.049-.685-.584-.282-.282-.585-.705-.806-.282-.182-.726-.766-.464-1.028.182-.182.282-.06.464.06.403.182.403.161.867.262.443.121.705.161.987.101.323-.06.706.141 1.149-.1.585.08.686-.142 1.109-.263.544-.1.766-.262 1.31-.322.323.16.444-.202.927-.283.524-.08.605-.201 1.109-.282.201.06.685-.181 1.129-.262.201-.02.423-.181.967-.242.323.202.524-.14.867-.181.181-.08.343-.323.343-.706.141-.725-.101-.604.02-1.028.181-.322 0-.443 0-.786.161-.504-.182-.725-.081-1.048.161-.504-.08-.766-.181-.867-.061-.12-.504-.524-.968-.544-.363-.02-.725.141-.685-.262.02-.504.806-.524.988-.544.181-.161.463-.242.846-.161.161.02.605-.081.887.12.202.182.464.182.947.343.262.121.545.464.726.585.242.201.343.665.343.867.101.524-.121.624-.262 1.25-.101.322.201.443.342.543.343 0 .283.323.726.343.464.1.524.403.947.323.444-.081.323.201.968.16.242 0 .584.263 1.129.082.403.02.705-.081.947 0 .403.02.685.16.927.201.242.06.545.182.807.544.1.424.342.444.342.948l.041.04zm-9.857 6.551c-.101-.202 0-.464-.161-.968-.182-.322-.424-.342-.625-.503-.282-.06-.605.362-.605.524-.06.363-.141.685-.161.927-.161.363.08.504.161.967.02.343.524.686.726.605.463-.161.362-.343.584-.625.02-.423.202-.544.081-.927zm3.225-8.204c-.181-.1-.282-.242-.464-.342-.161-.202-.362-.162-.383.14-.02.202-.181.343-.08.464.02.323.282.424.504.343.242.06.181-.08.463-.06.202-.02.323-.02.363-.242.02-.121-.081-.283-.403-.323v.02zM60.913 22.567c0 2.318-2.6 6.934-7.801 13.868l6.067-.423c6.632-1.734 11.691-2.298 15.158-1.734 3.467.867 5.2 2.016 5.2 3.467s-1.29 2.46-3.89 3.024c-2.6.866-5.624 1.733-9.09 2.6-1.452 1.149-3.326 3.608-5.624 7.357l4.333-.867c2.6.585 4.616 1.593 6.068 3.024 2.6 3.185 3.89 7.075 3.89 11.69 2.016.283 4.475.424 7.357.424 2.6.282 5.04 1.008 7.358 2.157 2.297 1.149 4.333 2.882 6.067 5.2 1.149 3.185-.141 4.193-3.89 3.024-5.786-1.734-11.55-2.882-17.315-3.467a56.27 56.27 0 00-.867 4.334c-.585 2.318-1.734 5.926-3.467 10.824 1.149.584 2.6 1.29 4.334 2.157 4.898 2.882 7.357 5.624 7.357 8.224v1.733c-.282.867-1.149 1.29-2.6 1.29-2.016-.584-4.919-1.874-8.668-3.89a23.272 23.272 0 00-4.757-2.157c-6.067 6.067-11.267 9.373-15.581 9.958-3.185.282-4.757-1.008-4.757-3.891 0-2.015-.282-3.749-.867-5.2-.584-1.734-1.733-3.89-3.467-6.49 4.032 2.318 7.216 4.051 9.534 5.2 2.016-.585 4.032-1.875 6.068-3.89-6.35-2.6-10.966-4.032-13.868-4.334-3.185-.867-6.068-1.29-8.668-1.29-3.467 0-5.2-2.016-5.2-6.067v-1.734c1.43-1.431 2.459-2.6 3.023-3.467-2.882-.282-5.482-.725-7.8-1.29-.867 1.734-2.016 4.757-3.467 9.09-2.016 6.068-4.334 12.559-6.934 19.493-.585.584-1.875.423-3.89-.424-3.75-3.749-6.491-9.373-8.225-16.891-.866-3.165-.866-5.2 0-6.067 3.75-4.898 5.483-12.417 5.2-22.516L1.169 48.55C-.002 47.4-.284 46.372.28 45.505c5.482-.584 10.4 1.008 14.714 4.758 1.431 1.148 2.016 2.156 1.734 3.023-2.016 5.2-4.475 11.409-7.358 18.625-1.148 4.616-1.45 7.942-.866 9.957 9.232-10.683 15.883-21.225 19.915-31.605.282-.585.584-.585.866 0 0 .584.141 1.733.424 3.467 0 2.015-.585 4.757-1.734 8.224-.584 3.467-1.451 6.208-2.6 8.223 6.35-1.148 10.965-2.297 13.868-3.467L44 60.22c-.867-.584-2.157-1.592-3.89-3.023 2.6 0 4.898-.283 6.934-.867 4.333-6.067 6.934-9.817 7.8-11.268-9.534-.282-14.009-1.874-13.424-4.757a717.149 717.149 0 019.534-16.025c-.282-2.297-1.592-3.89-3.89-4.757-.585-.584-.726-1.008-.423-1.29l8.667-.867c3.75-.282 5.624 1.452 5.624 5.201h-.02zm-32.473.867c2.298.866 3.89 2.6 4.757 5.2.584 2.318-.726 3.89-3.89 4.757-2.016.585-4.334.867-6.934.867-2.318 0-4.334-.141-6.068-.423-3.467.584-5.785 1.008-6.934 1.29a626.193 626.193 0 009.091-7.801c-2.882-3.75-4.757-6.067-5.624-6.934 7.801.867 13.002 1.875 15.582 3.024l.02.02zm12.134 54.564c1.431 0 3.326.283 5.624.867l3.89-6.934h-2.6c-.867 0-1.874.141-3.023.424-1.15 1.148-2.46 3.023-3.89 5.623v.02zM51.4 60.684l-3.024 5.2 4.334-.867c.866-.866 1.29-2.156 1.29-3.89a8.357 8.357 0 00-2.6-.423v-.02zm9.534 22.958c2.015-3.467 3.467-7.498 4.333-12.134-2.015-.282-3.89-.423-5.623-.423-.282.866-.867 2.156-1.734 3.89l-3.023 6.49c1.733.585 3.749 1.29 6.067 2.157l-.02.02zM57.466 57.66l2.157.867 1.733 2.6c.585 1.734.585 3.024 0 3.89h4.757c0-4.333-.141-6.772-.423-7.357-.282-.867-.867-1.431-1.734-1.733a23.521 23.521 0 00-6.49 1.733zM158.734 11.3c2.298 0 4.172.584 5.624 1.733 1.431 1.451 2.015 3.749 1.733 6.934l-.423 3.467c1.431-.283 2.015-1.15 1.733-2.6.867-1.15 2.016-1.432 3.467-.867 1.734.282 3.467.584 5.201.867 1.733.584 3.326 1.592 4.757 3.023.584.585.423 1.592-.424 3.024-.282.866-2.156 1.733-5.623 2.6-3.467 1.451-6.491 2.318-9.091 2.6 0 1.451-.282 3.185-.867 5.2 4.334 0 8.809.142 13.425.424 5.2.282 11.106 1.149 17.758 2.6 2.882.282 5.765 1.29 8.667 3.024 2.298 2.015 2.016 4.051-.866 6.067-5.785-1.15-9.958-2.157-12.558-3.024-1.149-.282-2.741-.584-4.757-.867-2.318-.282-4.475-.423-6.491-.423-2.318 3.75-4.051 6.209-5.2 7.358-.867.866-2.157 2.318-3.89 4.333l1.29.867c2.015.584 3.467 1.451 4.333 2.6.283.282.424.867.424 1.734-3.185 2.318-6.793 4.616-10.825 6.934a22.57 22.57 0 01-.423 4.333c1.734-.282 3.608-.584 5.624-.866 2.298-.585 4.334-.867 6.067-.867 2.6 0 4.616.423 6.067 1.29 1.149.867 1.734 1.874 1.734 3.023 0 .585-.585 1.29-1.734 2.157-2.318 1.15-6.651 1.875-13.001 2.157-2.016 0-3.467.141-4.334.423.585 9.534 1.008 17.617 1.29 24.249-1.148 5.2-3.467 6.491-6.934 3.89-2.015-1.451-2.882-4.192-2.6-8.224.282-2.6.424-5.039.424-7.357V80.982l-4.757.866c-2.601.585-6.209 1.452-10.825 2.6l-2.157-2.156c-1.733-1.734-2.015-2.883-.866-3.467 1.431-.867 3.749-1.734 6.934-2.6 4.898-2.298 9.09-5.04 12.557-8.224a43.838 43.838 0 00-6.067-.424c-2.6 0-4.475-1.43-5.624-4.334-.584-1.43-.423-3.023.424-4.757-2.6-2.015-4.193-5.623-4.757-10.824-3.185.867-5.624 1.593-7.358 2.157-2.318.867-5.2 1.29-8.667 1.29-3.185-.282-6.208-1.29-9.091-3.023-2.318-1.432-2.318-2.298 0-2.6l7.801-1.29c10.965-2.016 20.641-3.891 29.006-5.624 1.149-1.432 1.733-3.024 1.733-4.758l-3.467-.866c-2.015-1.734-3.749-3.024-5.2-3.89-1.734-.867-3.024-1.875-3.891-3.024-.282-.867 0-1.29.867-1.29l2.6.423c3.467.867 6.491 1.15 9.091.867.282-.585.282-1.733 0-3.467 0-2.6-.141-4.475-.423-5.624a596.017 596.017 0 00-2.6-3.89l.866-.867c.283-.584 1.008-.867 2.157-.867h2.157l-.02-.02zm-3.89 34.205c-2.318.283-4.052.726-5.201 1.29.585 2.883 1.734 5.06 3.467 6.491L157 51.13l.424.424c-.867 1.733-1.29 3.608-1.29 5.623v1.734c8.083-4.334 12.84-9.09 14.291-14.291h-6.067c-3.467 0-6.652.282-9.535.866l.021.02zm-5.201 30.316l8.668-1.29c0-.866.141-2.015.423-3.467-3.749 2.319-6.793 3.89-9.091 4.757z" fill="#fff"/></svg>