<svg id="_レイヤー_2" data-name="レイヤー 2" xmlns="http://www.w3.org/2000/svg" width="344.634" height="94.222" viewBox="0 0 344.634 94.222"><path d="M132.821 38.942h2.108c.669 0 1.526-.057 2.22-.138.471-.057.779.22.779.687v2.669c0 .44-.279.716-.722.687-.722 0-1.473-.028-2.026-.028h-2.22c-.443 0-.721.277-.693.716.058 3.523.168 7.156.222 10.598.028 1.871-1.026 2.945-3.274 2.945-1.526 0-2.801-.028-4.192-.11-.332 0-.611-.276-.64-.606l-.221-2.669c-.058-.496.25-.797.779-.744.944.11 1.887.167 2.527.167s.89-.33.89-1.103v-3.8c-.029-1.155-.5-1.322-1.304-.467-2.306 2.42-5.497 4.898-8.606 6.607a.69.69 0 01-.833-.167l-1.944-2.201c-.361-.415-.279-.855.221-1.074 3.996-2.01 7.437-4.626 9.55-7.047.553-.606.307-1.045-.501-1.045h-4.939c-.779 0-1.722.028-2.555.057-.443.028-.722-.248-.722-.688V39.52c0-.468.332-.745.804-.716.751.08 1.694.138 2.387.138h7.495c.414 0 .693-.305.693-.716l-.058-.798c-.028-.606-.11-1.375-.192-2.148-.029-.467.221-.773.721-.773h2.888c.472 0 .751.33.694.798a18.585 18.585 0 00-.058 2.12l.029.825c0 .415.279.688.693.688v.004zm25.76-2.892c.197-.03.419 0 .583.138l1.805 1.293c.303.22.389.607.168.908v.057c-.222.414-.529.907-.722 1.322a38.587 38.587 0 01-3.61 6.387c-.221.33-.168.687.111.936 2.219 1.98 4.803 4.65 6.272 6.358.25.301.221.688-.082.965l-2.58 2.229c-.361.301-.751.248-1.026-.138-1.497-2.01-3.359-4.101-5.357-6.03-.303-.305-.693-.305-1.001 0-2.527 2.53-5.607 4.846-8.717 6.416-.25.138-.582.081-.804-.138l-2.219-2.287c-.443-.467-.332-.907.251-1.155 3.913-1.652 7.633-4.569 9.77-6.965 1.444-1.623 2.691-3.495 3.36-5.036.221-.525-.057-.883-.611-.883h-7.244c-.862 0-1.859.081-2.638.166-.443.029-.751-.248-.751-.687v-2.974c0-.468.304-.744.804-.716.891.081 1.998.138 2.581.138h8.798c1.112 0 2.137-.138 2.802-.305h.057zm26.573 0c.197-.03.418 0 .582.138l1.805 1.293c.304.22.39.607.168.908v.057c-.221.414-.529.907-.722 1.322a38.648 38.648 0 01-3.609 6.387c-.222.33-.168.687.11.936 2.22 1.98 4.804 4.65 6.272 6.358.251.301.222.688-.082.965l-2.58 2.229c-.361.301-.75.248-1.025-.138-1.497-2.01-3.36-4.101-5.357-6.03-.304-.305-.694-.305-1.001 0-2.527 2.53-5.608 4.846-8.717 6.416-.25.138-.582.081-.804-.138l-2.219-2.287c-.443-.467-.332-.907.25-1.155 3.913-1.652 7.634-4.569 9.771-6.965 1.444-1.623 2.691-3.495 3.359-5.036.222-.525-.057-.883-.611-.883H173.5c-.861 0-1.858.081-2.637.166-.443.029-.751-.248-.751-.687v-2.974c0-.468.304-.744.804-.716.89.081 1.998.138 2.58.138h8.799c1.111 0 2.137-.138 2.801-.305h.058zm25.272-1.075l3.388 1.241c.472.191.612.578.361 1.017a73.78 73.78 0 00-.779 1.57c-.833 1.872-1.969 3.992-3.47 6.278-.222.305-.169.687.139.907a116.068 116.068 0 015.411 4.65c.303.248.332.635.057.936l-2.305 2.616c-.304.33-.722.33-1.026.028a76.424 76.424 0 00-4.828-4.459c-.303-.276-.693-.248-.972.082-2.026 2.396-4.775 5.256-8.048 7.294h-.057c-.251.139-.554.11-.804-.081l-2.667-2.42c-.471-.416-.389-.855.14-1.156 3.023-1.595 5.661-3.881 7.884-6.44.279-.33.25-.716-.111-.993-1.723-1.265-3.802-2.726-5.468-3.743-.443-.248-.529-.659-.193-1.045l1.916-2.201c.221-.277.554-.33.861-.167 1.555.907 3.663 2.31 5.55 3.633.361.248.751.167.972-.191 1.137-1.733 2.027-3.552 2.609-5.175.14-.496.333-1.103.472-1.652.111-.496.5-.716.972-.525l-.004-.004zm13.463 18.198c0-1.624 1.304-2.893 3.109-2.893s3.109 1.265 3.109 2.893-1.304 2.864-3.109 2.864-3.109-1.184-3.109-2.864zm1.386-5.008l-1.001-7.624v-.057l-.139-3.605c-.029-.44.25-.716.693-.716h4.356c.443 0 .722.277.694.716l-.14 3.605v.057l-1.001 7.624c-.057.358-.332.606-.693.606h-2.08a.687.687 0 01-.693-.606h.004zm-55.27-28.991l1.74.183c.246.033.385.216.324.46l-.218.964c-.033.228-.078.46-.139.688-.062.288.094.46.385.443h.493c1.665 0 2.773.781 2.773 2.917 0 1.696-.201 4.003-.817 5.272-.492 1.038-1.341 1.408-2.527 1.408a8.381 8.381 0 01-1.509-.154.389.389 0 01-.291-.306l-.23-1.452c-.062-.35.123-.52.492-.46.447.094.923.167 1.173.167.464 0 .788-.155.985-.55.369-.72.537-2.35.537-3.681 0-1.054-.447-1.176-1.341-1.176-.107 0-.246 0-.402.017a.393.393 0 00-.353.288c-.57 2.124-1.542 5.18-2.65 7.104a.381.381 0 01-.48.154l-1.526-.61c-.279-.106-.34-.338-.168-.582 1.108-1.68 1.924-3.88 2.433-5.638.078-.277-.062-.415-.324-.383l-.464.061c-.357.045-.911.122-1.37.2-.246.032-.431-.106-.447-.35l-.123-1.481c-.017-.26.156-.427.414-.427.414.016.816 0 1.235-.017.369-.016.832-.032 1.37-.077.168 0 .308-.138.34-.305.156-.826.23-1.59.23-2.278.016-.26.168-.427.447-.399h.008zm7.581 1.664c-.156.061-.201.2-.107.35.755 1.285 1.649 3.316 2.08 4.597.078.2-.017.382-.201.46l-1.493.687c-.279.122-.48.017-.554-.276-.369-1.47-1.124-3.406-1.957-4.675-.168-.244-.106-.476.168-.598l.415-.167c.23-.105.307-.321.201-.533-.185-.337-.369-.687-.554-.992-.139-.244-.078-.472.185-.582l.648-.26a.366.366 0 01.463.138c.291.46.616 1.054.849 1.497.078.138.017.289-.139.35l-.004.004zm1.71-.671l-.664.289a.404.404 0 01-.509-.184c-.201-.41-.463-.87-.726-1.269-.156-.26-.094-.488.185-.598l.631-.244a.366.366 0 01.464.138c.262.411.57.948.8 1.36.106.199.033.41-.185.504l.004.004zm-125.893 2.51l-4.32 1.176c-.295.08-.438.33-.356.622l.053.195c.082.293.332.436.628.354l3.195-.87c.295-.082.545.06.628.354l1.5 5.439c.083.293-.06.54-.356.622l-1.994.541a.24.24 0 01-.303-.17.235.235 0 00-.3-.171l-5.049 1.37a.233.233 0 00-.172.298.238.238 0 01-.173.3l-1.874.51c-.295.08-.546-.062-.628-.355l-1.501-5.439c-.082-.293.061-.541.357-.622l2.957-.806c.296-.081.44-.33.357-.622L46 25.207c-.082-.293-.332-.435-.628-.354l-3.65.993c-.296.081-.546-.061-.628-.354l-.394-1.428c-.082-.293.062-.541.357-.622l3.65-.993c.296-.081.44-.33.358-.622l-.074-.273c-.082-.293-.332-.435-.628-.354l-3.708 1.009c-.295.081-.439.33-.357.622.825 3.141 1.666 7.563.734 10.948-.094.342-.36.456-.693.334a14.616 14.616 0 00-1.665-.431c-.386-.086-.538-.338-.451-.716.89-3.23-.037-7.12-.804-9.899l-1.395-5.028c-.082-.293.061-.541.357-.622l13.475-3.662c.295-.081.545.061.627.354l1.26 4.56c.082.294-.062.542-.357.623l-3.315.9c-.295.08-.439.329-.357.622l.074.272c.082.293.333.435.628.354l4.32-1.176c.295-.081.545.061.627.354l.394 1.428c.082.293-.062.541-.357.623l.004.008zm-5.464-5.879l-8.364 2.27c-.176.05-.262.2-.213.375l.07.252c.049.175.2.26.377.211l8.364-2.27c.176-.049.262-.2.213-.374l-.07-.252c-.049-.175-.2-.26-.377-.212zm3.347 11.27l-.188-.684c-.05-.175-.201-.26-.378-.212l-4.93 1.339c-.177.049-.263.2-.214.374l.189.684a.29.29 0 00.377.211l4.931-1.338c.176-.05.263-.2.213-.375zm20.736-16.563l-2.54.55c-.299.065-.455.309-.39.606l.07.317c.066.297.308.452.612.387l2.137-.464c.3-.065.545.09.611.386l2.666 12.095c.066.297-.09.537-.39.602l-1.738.379c-.238.053-.41-.057-.46-.273-.053-.236-.221-.346-.443-.297L66.1 27.107c-.238.053-.35.22-.296.46.05.22-.061.386-.283.435l-1.64.354c-.3.065-.546-.09-.612-.386l-2.666-12.095c-.066-.297.09-.537.39-.606l2.018-.44c.3-.065.455-.31.39-.606l-.07-.317c-.066-.297-.312-.452-.612-.387l-2.379.517c-.3.065-.541-.09-.607-.387l-.028-.138c-.083-.378-.255-.403-.407-.037l-.557 1.266c-.123.297-.394.398-.694.272a53.84 53.84 0 00-2.51-.846c-.316-.098-.439-.382-.3-.704l.686-1.456a.538.538 0 01.59-.273c.8.2 1.797.464 2.56.692.246.073.39-.041.332-.301-.057-.26.082-.476.345-.533l11.735-2.547c.3-.065.542.09.612.387l.324 1.468c.065.297-.09.541-.39.606h-.008zm-12.093 6.632l-.705 1.647c-.107.273-.378.375-.673.273-.681-.248-1.67-.533-2.494-.77-.337-.093-.46-.377-.32-.699l.68-1.477c.103-.207.325-.341.571-.268.833.17 1.87.403 2.654.63.312.078.435.363.291.664h-.004zm.086 10.471l-1.858-.634c-.27-.086-.386-.33-.324-.615.406-1.48.857-3.53 1.19-5.536.061-.387.36-.558.705-.403l1.596.671c.23.094.34.301.324.513l.008.04a122.126 122.126 0 01-.968 5.59c-.07.346-.353.492-.673.374zm4.295-11.59l-.5.11c-.18.04-.275.183-.234.362l.3 1.367c.077.358.303.43.483.101.333-.59.292-1.143.18-1.66l-.036-.158c-.02-.098-.095-.147-.193-.122zm6.485 2.335l-.8.175c-1.62.35-2.112-.187-2.518-2.03l-.18-.814c-.042-.179-.185-.272-.366-.232l-.2.045c-.12.025-.185.122-.16.224l.044.2c.28 1.269.234 2.774-1.181 4.055-.123.11-.27.102-.394.025l-.291-.187c-.291-.188-.455-.07-.382.268l.062.277c.041.179.184.272.365.232l6.198-1.343c.18-.04.275-.183.234-.362l-.066-.297c-.04-.179-.184-.273-.365-.232v-.004zM65.5 24.78l6.198-1.342c.18-.041.275-.183.233-.362l-.07-.318c-.04-.179-.184-.272-.364-.232l-6.198 1.343c-.18.04-.275.183-.234.362l.07.317c.04.18.184.273.365.232zm1.267-11.078l-.156-.712c-.04-.179-.184-.272-.365-.232l-.34.074c-.18.04-.275.183-.234.362l.156.716c.04.179.184.272.365.232l.34-.074c.18-.04.275-.183.234-.362v-.004zm3.827 3.304l-.217-.993c-.041-.18-.185-.273-.365-.232l-.419.09c-.18.04-.275.183-.234.362l.165.752c.086.399.13.407.373.354l.5-.11.115-.044c.054-.033.103-.106.086-.183l-.004.004zm19.074 3.795l4.66-.785c.304-.053.538.114.59.415l.198 1.14c.053.3-.115.532-.419.585l-12.81 2.164c-.304.053-.537-.113-.59-.415l-.198-1.139c-.053-.3.115-.533.419-.585l4.536-.765c.263-.045.415-.257.366-.537a.431.431 0 00-.521-.366l-3.327.56c-.304.054-.537-.113-.59-.414l-.198-1.14c-.053-.3.115-.532.419-.585l3.368-.57c.242-.04.377-.227.332-.488-.041-.24-.23-.374-.468-.313l-3.606.773c-.299.07-.533-.094-.607-.39l-.25-1.09c-.074-.318.09-.55.41-.627l1.108-.208a.55.55 0 00.385-.293l.013-.045.086-.22a.641.641 0 01.033-.044c.094-.305-.041-.488-.386-.427l-1.41.24a.498.498 0 00-.423.565c.324 2.848.373 6.156-.562 8.702-.132.33-.427.424-.739.29a10.553 10.553 0 00-1.57-.578c-.374-.122-.526-.387-.399-.757 1.124-3.112.546-7.091.062-9.915l-.878-5.121c-.053-.302.115-.533.418-.586l13.877-2.344c.304-.053.538.114.591.415l.71 4.121c.053.302-.115.533-.419.586l-11.276 1.904c-.18.029-.267.147-.238.31.029.178.148.264.312.235l11.768-1.944c.304-.053.538.114.591.415l.201 1.16c.053.3-.115.532-.418.585l-.587.098c-.644.11-.701.386-.127.72.53.3 1.038.606 1.444.911.287.22.3.525.028.757l-1.32 1.127c-.197.179-.431.154-.64.024l-.045-.032c-.128-.123-.267-.224-.41-.342a.568.568 0 00-.41-.094l-1.765.358c-.279.07-.43.28-.381.558.053.3.262.451.566.398l3.347-.565c.304-.053.538.114.59.415l.198 1.139c.053.3-.115.533-.419.586l-3.367.57c-.283.048-.435.26-.39.516.05.28.262.431.541.382h-.004zm-.91-12.672l-8.635 1.456c-.18.029-.283.17-.25.35l.02.122c.03.179.173.28.353.248l8.635-1.456c.18-.029.283-.171.25-.35l-.02-.118c-.03-.18-.173-.28-.353-.248v-.004zm-.702 5.943l-1.653.281c-.082.012-.176.07-.2.159-.083.118-.144.252-.21.366-.152.313-.02.476.316.399l1.83-.35c.217-.057.22-.163.036-.273-.18-.093-.213-.272-.029-.407.165-.13.132-.207-.09-.17v-.005zM98.16 9.284c1.28.492 2.9 1.229 3.982 1.79.263.13.361.403.23.667l-.931 1.896c-.127.28-.406.378-.689.252-1.124-.573-2.642-1.301-3.86-1.802-.304-.126-.423-.399-.275-.704l.919-1.855a.47.47 0 01.627-.244h-.004zm.496 8.853c1.899-.627 3.835-1.445 5.628-2.734 2.793-2.01 5.066-4.711 6.333-7.384.246-.5.591-.545.915-.094L113 9.886c.103.15.127.354.025.529-1.518 2.811-3.897 5.464-6.777 7.604-1.718 1.24-4.171 2.51-5.812 3.067a.525.525 0 01-.558-.175l-1.472-1.981c-.271-.354-.165-.655.25-.79v-.003zm1.94-13.641c1.259.496 2.884 1.253 3.983 1.79.283.126.361.402.234.687l-.956 1.86c-.127.28-.406.357-.693.231-1.1-.537-2.63-1.22-3.852-1.74-.303-.127-.402-.4-.254-.684l.89-1.892c.135-.24.39-.354.648-.244v-.008zm27.184 9.613l-1.674-.81c-.365-.17-.414-.492-.156-.801.443-.55.903-1.18 1.28-1.741.32-.537.09-.802-.529-.627-.578.175-1.321.383-2.141.639-.3.09-.443.346-.333.659.878 2.246 1.76 4.487 2.154 5.452l.476 1.159c.131.313.012.61-.324.72l-1.973.663c-.32.09-.599-.049-.669-.366-.119-.419-.262-.895-.422-1.265-.402-1.025-1.243-3.332-2.06-5.562-.106-.276-.344-.398-.623-.313l-2.556.798c-.299.09-.537-.033-.648-.33l-.627-1.757c-.115-.338.049-.594.393-.668.402-.077.829-.154 1.268-.276.201-.057.603-.155 1.124-.301.344-.07.48-.35.353-.663l-.296-.79a6.774 6.774 0 00-.406-.862c-.197-.35-.098-.643.283-.757l1.875-.635a.508.508 0 01.668.37l.337 1.01.353.968c.106.256.34.378.623.313 2.141-.618 4.303-1.257 5.045-1.464.279-.086.579-.196.813-.318a.482.482 0 01.476.02h.041l1.538.88a.479.479 0 01.201.614c-.71 1.712-2.096 4.32-3.212 5.886a.484.484 0 01-.644.16l-.008-.005zm8.774-12.363c1.296.821 3.322 2.253 4.532 3.323.238.192.23.476.037.688l-1.579 1.794c-.234.236-.517.252-.755.04-1.078-.976-2.92-2.38-4.221-3.262-.299-.187-.336-.488-.127-.765l1.44-1.705c.172-.211.435-.248.669-.118l.004.005zm-1.518 12.359c2.51-.566 4.668-1.497 6.329-2.587 3.024-1.957 5.312-4.663 6.559-7.21.279-.524.624-.56.96-.052l1.309 2.103a.51.51 0 01.029.484c-1.424 2.742-3.955 5.464-6.998 7.461-1.838 1.2-4.152 2.323-6.477 2.86a.469.469 0 01-.525-.195l-1.51-2.05c-.267-.391-.144-.704.324-.81v-.004zM154.914.42l2.355-.05c.328-.008.537.212.525.537-.017.265-.029.57-.021.977l.14 6.554c.008.325.037.81.065 1.237.029.325-.172.553-.5.557l-2.416.049c-.308.008-.517-.212-.501-.517.013-.407.041-.895.033-1.281l-.139-6.534c-.004-.244-.013-.59-.041-.952-.049-.342.152-.574.5-.578zm8.938-.371L166.186 0c.329-.008.538.212.525.537-.012.448-.02.936-.008 1.542l.091 4.199c.082 3.877-.776 5.821-2.24 7.396-1.161 1.26-2.982 2.233-4.365 2.75-.18.085-.41.028-.553-.13l-1.494-1.794c-.295-.358-.196-.688.251-.818 1.403-.476 2.719-1.094 3.679-2.108 1.259-1.407 1.518-2.774 1.46-5.43l-.086-4c-.012-.59-.041-1.074-.115-1.521-.028-.346.152-.574.521-.578v.004zm8.04 8.938l.033-2.595c.004-.326.234-.525.558-.5.837.052 2.047.125 2.802.137l10.332.13c.616.009 1.293-.044 1.822-.077.328-.016.549.192.545.513l-.033 2.595c-.004.326-.213.525-.537.5a27.933 27.933 0 00-1.842-.105l-10.333-.134a63.93 63.93 0 00-2.826.045c-.307 0-.529-.212-.525-.513l.004.004zm28.776-3.161c1.493.073 2.654 1.35 2.58 2.832-.074 1.48-1.362 2.636-2.855 2.558-1.493-.073-2.654-1.35-2.58-2.831.073-1.48 1.361-2.636 2.855-2.559zM217.313 3.6c-.168.72-.303 1.543-.34 1.966-.111 1.253-.226 2.506-.238 3.787.02 2.506.254 4.28 1.354 4.378.693.06 1.366-1.286 1.825-2.486.217-.59.574-.663.935-.122l1.325 1.932c.09.13.115.334.037.513-1.563 3.019-2.867 4.044-4.52 3.897-2.26-.199-3.967-2.286-4.049-7.546-.02-1.815.152-3.98.263-5.191.036-.403.061-.932.049-1.44-.008-.387.197-.615.586-.578l2.318.244c.365.032.55.293.455.65v-.003zm9.697.875c1.477 2.311 2.429 6.57 2.523 9.207a.51.51 0 01-.373.496l-2.236.639c-.377.09-.648-.098-.656-.488-.131-2.64-.542-6.322-2.067-8.78-.251-.41-.14-.724.319-.825l1.953-.46a.528.528 0 01.537.211zm8.245-.996l2.203.508c.361.086.509.37.341.716-.177.387-.353.793-.448 1.07-.516 1.428-1.456 4.21-1.636 6.237-.054.586.201.659.517.15l.233-.378c.181-.285.476-.33.735-.11l.558.46a.478.478 0 01.127.59 50.332 50.332 0 00-1.785 4.357 5.046 5.046 0 00-.266.927l-.037.444a.442.442 0 01-.488.427l-1.768-.061c-.226-.008-.431-.159-.464-.386-.279-1.347-.55-3.878-.275-5.989a48.537 48.537 0 011.522-7.254c.131-.39.218-.874.291-1.293.062-.318.312-.493.632-.411l.008-.004zm14.357 5.724l-.271 1.908a.485.485 0 01-.533.443l-1.944-.126c-.185 0-.324.102-.345.285l-.041.321c-.574 4.406-1.407 6.86-5.107 8.8a.498.498 0 01-.586-.094l-1.551-1.57c-.344-.35-.262-.688.197-.875.677-.28 1.407-.68 1.899-1.106 1.292-1.204 1.924-2.596 2.31-5.537l.033-.26c.016-.143-.07-.257-.214-.273-.611-.057-1.202-.134-1.747-.204a53.668 53.668 0 01-2.383-.386c-.283-.057-.46-.285-.423-.566l.238-1.83c.045-.362.295-.513.652-.427a19.5 19.5 0 002.195.402c.488.061.997.106 1.546.175.308.02.538-.154.554-.46.078-.748.144-1.415.156-1.842v-.777c-.033-.391.205-.627.611-.578l2.072.264c.365.05.537.314.451.651-.058.297-.095.562-.148.822-.061.317-.139.924-.234 1.627-.041.322.156.554.484.574.575.033 1.108.04 1.604.04.349 0 .566.237.521.599h.004zm20.231 1.574l-.332 1.672c-.053.322-.287.464-.611.411a142.15 142.15 0 00-4.238-.822c-.32-.053-.558.11-.615.432-.094.663-.209 1.322-.312 1.924 0 .02-.012.06.004.081l.009.187c.016.025.008.065.024.086.3.793.365 1.729.201 2.669-.406 2.36-2.449 5.264-7.154 5.842a.52.52 0 01-.512-.273l-.944-1.993c-.201-.403-.024-.704.439-.729 1.177-.09 2.203-.264 3.081-.65l.049-.033c.045-.012.049-.053-.008-.065l-.041-.008h-.123l-.041-.008a3.562 3.562 0 01-2.741-4.19c.394-2.28 2.486-3.345 4.685-2.97l.242.04c.139.024.254-.04.279-.179l.041-.24a.498.498 0 00-.423-.565 176.715 176.715 0 00-7.018-.928c-.324-.053-.492-.269-.46-.594l.275-1.705c.037-.325.271-.488.595-.435 2.117.362 5.07.801 7.314 1.143.061.008.102 0 .152-.036a.156.156 0 00.057-.094l-.016-.024.008-.041c.037-.448.07-.895.094-1.261.025-.387.25-.598.632-.53l2.096.359c.361.06.525.334.443.671l-.32 1.261-.016.102.053.049c.012.045.049.069.111.081 1.493.252 3.491.574 4.619.765.303.053.467.285.418.586l.004.012zm-10.078 6.314c.603.102 1.304-.211 1.341-1.643a.225.225 0 00-.021-.127c-.172-.317-.512-.52-.914-.585-.566-.098-1.272.154-1.416.992-.123.7.423 1.265 1.01 1.367v-.004zm11.743 8.727l-1.411-1.302c-.209-.191-.233-.464-.037-.692a61.847 61.847 0 003.385-4.605c.217-.326.541-.362.812-.073l1.136 1.224c.168.183.201.42.074.619a76.228 76.228 0 01-3.208 4.768c-.189.292-.508.305-.746.065l-.005-.004zm4.34-9.801l-1.32 1.147c-.263.236-.567.187-.796-.09-.447-.532-1.128-1.159-1.764-1.692-.304-.231-.32-.545-.012-.793l1.189-1.03c.16-.15.414-.158.615-.032.747.517 1.58 1.196 2.158 1.819.185.207.148.468-.066.671h-.004zm1.978-4.784l-1.321 1.147c-.263.236-.566.187-.784-.065-.48-.582-1.173-1.233-1.825-1.79-.279-.248-.296-.562.004-.79l1.189-1.029a.51.51 0 01.632-.008c.759.537 1.612 1.241 2.182 1.884.165.203.148.468-.077.647v.004zm10.353 11.948l-.501-.11c-.279-.06-.516.074-.598.346-.033.159-.087.293-.14.448-.09.313.062.573.382.643l.299.065c.299.065.455.305.39.606l-.292 1.33c-.065.297-.311.452-.611.387l-.722-.155c-.258-.057-.476.065-.59.31-.242.528-.484.87-.714 1.049-.603.553-1.153.663-1.838.639-.517-.029-1.222-.163-1.977-.346-.275-.082-.414-.297-.394-.586.004-.31 0-.667-.049-1.009-.07-.537.164-.753.681-.622.377.101.677.166.894.215.259.057.476.02.677-.122.025-.016.07-.028.074-.045 0-.02.024-.016.029-.036.004-.02.028-.037.012-.061v-.02c-.008-.045-.021-.07-.062-.078l-4.36-.944c-.258-.057-.484.102-.599.346a.52.52 0 01-.636.317l-1.558-.439c-.357-.098-.485-.374-.329-.696.398-.952.858-2.079 1.292-3.295.136-.325-.016-.586-.356-.66l-.501-.109c-.299-.065-.455-.305-.389-.602l.324-1.469c.065-.297.307-.451.611-.386l.939.203a.506.506 0 00.595-.33c.18-.54.381-1.061.562-1.602.045-.114-.008-.147-.082-.102l-.049.033c-.099.06-.197.04-.279-.061a13.25 13.25 0 00-1.305-1.404c-.312-.297-.283-.622.066-.879 1.28-.948 2.465-2.437 3.359-4.031.14-.26.39-.35.661-.232l1.641.728c.303.15.389.415.229.671l-.008.04c-.037.078-.098.168-.135.241l-.008.04c-.222.347-.099.643.319.733l6.719 1.456c.3.066.456.31.39.607l-.32 1.448c-.065.297-.307.452-.611.386l-8.216-1.781a.521.521 0 00-.472.146l-.193.207c-.246.26-.184.46.156.533l7.736 1.677c.32.069.476.309.386.622-.041.2-.115.431-.148.57-.197.703-.365 1.375-.545 2.001-.066.297.086.557.385.623l.32.069c.3.065.456.309.39.606l-.324 1.469c-.066.297-.308.451-.607.386v.016zm-8.553-1.582l-.307.826c-.066.195.024.358.225.402l.661.143a.3.3 0 00.357-.191c.082-.273.18-.542.266-.834.066-.196-.024-.358-.225-.403l-.62-.134a.3.3 0 00-.357.19zm1.272-3.674l-.238.696c-.066.195.025.358.226.403l.557.122c.181.04.32-.033.361-.212l.218-.7c.065-.195-.029-.337-.23-.382l-.562-.122c-.16-.037-.299.036-.336.195h.004zm2.248 5.68l.841.182c.18.041.32-.032.361-.211.078-.252.184-.541.25-.838.065-.195-.029-.338-.23-.383l-.8-.174c-.16-.033-.303.04-.357.19-.086.294-.192.582-.27.855a.276.276 0 00.209.378h-.004zm2.321-3.882l.177-.708c.066-.195-.029-.337-.23-.382l-.681-.146a.312.312 0 00-.361.211l-.197.704c-.061.195.029.338.23.382l.697.15a.311.311 0 00.361-.21h.004zm23.054 4.707l-2.092-.57a.48.48 0 00-.456.11c-.25.208-.492.391-.718.603-.459.358-.389.716.185.87l2.17.59c.295.082.439.33.357.623l-.378 1.37c-.082.294-.332.436-.627.355l-5.759-1.567c-.296-.081-.546.061-.628.354l-.066.236c-.082.293.062.541.357.623l4.873 1.322c.296.081.439.33.357.622l-.369 1.33c-.082.294-.332.436-.628.355l-4.873-1.323c-.295-.081-.545.061-.627.354l-.456 1.644c-.082.293-.332.435-.627.354l-1.854-.505c-.296-.081-.439-.33-.357-.622l.455-1.644c.082-.293-.061-.545-.357-.622l-4.5-1.22c-.295-.082-.438-.33-.356-.623l.369-1.33c.082-.293.332-.436.627-.354l4.5 1.22c.296.082.546-.06.628-.354l.065-.236c.083-.293-.061-.545-.356-.622l-5.624-1.526c-.296-.081-.439-.33-.357-.622l.377-1.371c.082-.293.333-.436.628-.354l2.408.655c.455.122.705-.102.623-.566-.053-.35-.139-.732-.213-1.066l.061-.065-.016-.024-2.802-.76c-.295-.082-.438-.33-.356-.623l.377-1.371c.082-.293.332-.436.628-.354l6.038 1.64c.295.08.545-.062.627-.355l.037-.138c.082-.293-.061-.541-.357-.622l-4.143-1.127c-.295-.082-.439-.33-.357-.623l.374-1.35c.082-.293.332-.436.627-.354l4.143 1.126c.296.082.55-.06.628-.353l.139-.509c.082-.293.333-.435.628-.354l1.854.505c.295.08.439.329.357.622l-.14.509c-.082.292.062.54.357.622l4.381 1.188c.296.081.439.33.357.622l-.373 1.351c-.082.293-.332.435-.628.354l-4.381-1.188c-.295-.081-.545.061-.627.354l-.037.138c-.082.293.061.541.357.623l6.194 1.684c.295.081.439.33.357.622l-.378 1.371c-.082.293-.332.436-.627.354v-.008zm-9.927-.846l2.92.793c.099.029.234 0 .3-.085.295-.297.586-.663.857-1.03.164-.207.09-.394-.148-.46l-3.946-1.073c-.315-.085-.463.065-.381.378.074.42.156.822.18 1.184 0 .147.099.26.218.289v.004zM49.438 94.218a1.05 1.05 0 01-.926-.548L.132 5.783A1.05 1.05 0 01.55 4.35a1.06 1.06 0 011.435.417l48.38 87.89a1.055 1.055 0 01-.927 1.564v-.004zm245.755 0a1.054 1.054 0 01-.927-1.563l48.385-87.887c.283-.511.922-.695 1.435-.417s.697.92.418 1.432l-48.384 87.89a1.059 1.059 0 01-.927.549v-.004z" fill="#fff" stroke-width="0" id="_レイヤー_1-2" data-name="レイヤー 1"/></svg>