<svg id="_レイヤー_2" data-name="レイヤー 2" xmlns="http://www.w3.org/2000/svg" width="269.646" height="33.206" viewBox="0 0 269.646 33.206"><path d="M22.563 26.656l3.328-.44c.415-.056.724.188.78.595l.294 2.205c.057.415-.187.724-.602.78L13.979 31.44c-.415.057-.724-.187-.781-.594l-.293-2.205c-.057-.415.187-.724.594-.78l3.914-.521c.415-.057.65-.367.594-.782l-.49-3.661c-.056-.415-.365-.65-.78-.594l-2.01.268a.323.323 0 01-.374-.284c-.024-.196-.081-.212-.114-.04v.056c-.675 2.693-1.603 5.167-2.815 7.233-.277.456-.692.489-1.098.147l-.537-.431c-.725-.602-1.164-.326-1.042.585l.3 2.287c.058.415-.186.724-.593.781l-2.23.293c-.414.057-.723-.187-.78-.594L3.963 21.4c-.114-.83-.456-.895-.928-.212l-.114.187c-.374.554-.862.505-1.212-.065-.464-.748-1.059-1.65-1.562-2.286-.204-.285-.195-.643.024-.895C2.01 15.696 3.629 12.295 4.5 8.927c.122-.383.43-.586.83-.53l2.27.432c.456.081.675.415.537.854-.383 1.367-.83 2.832-1.375 4.215-.025.032-.016.09-.016.114l-.057.236 1.367 10.35c.154 1.187.675 1.285 1.179.211 1.042-2.27 1.7-4.955 2.09-7.925.067-.545-.251-.838-.772-.765l-1.952.26c-.415.058-.724-.187-.781-.593l-.293-2.205c-.057-.415.187-.725.594-.782l3.026-.398c.358-.049.578-.301.586-.667.049-1.099.04-2.246.025-3.393 0-.423.268-.708.69-.708l2.54-.082c.447 0 .74.269.732.684l-.057 2.726c-.016.504.277.805.798.732l7.347-.976c.415-.057.724.187.78.593l.294 2.205c.057.415-.187.725-.602.782l-8.365 1.106a.717.717 0 00-.618.619 43.485 43.485 0 01-.26 2.083c-.065.545.228.87.805.789l8.259-1.09c.415-.057.724.187.78.594l.286 2.123c.057.415-.187.724-.594.781l-2.67.35c-.414.057-.65.366-.593.781l.488 3.662c.057.415.366.65.78.602l-.015-.04zm12.872-21.48c.016.447.293.7.732.65l3.816-.382c.358-.04.603.163.61.52.025.196.017.391.033.554.204 3.133.163 4.703-.35 5.452-.463.634-1.05.919-1.814 1.074-.488.13-1.31.268-2.254.341a.738.738 0 01-.757-.57c-.048-.219-.13-.43-.203-.65-.27-.724-.708-.684-1.123-.024-.7 1.073-1.75 2.074-3.255 2.92-.374.204-.74.106-.976-.236a8.667 8.667 0 00-1.017-1.269c-.496-.512-.464-.96.146-1.326 1-.602 1.66-1.253 2.092-1.994.309-.56.016-.927-.643-.854l-1.245.122c-.415.04-.716-.203-.765-.618l-.155-1.579c-.04-.415.204-.716.619-.765l2.35-.235c.359-.033.612-.31.603-.651v-.057l.009-.114v-.057c-.017-.39.203-.667.618-.708l2.18-.22c.415-.04.717.204.733.627v.024l.016.025zm14.93 18.348l-1.187.122c-1.164.114-1.164.398-.073.708 1.293.374 2.587.748 3.685 1.106.863.277.92.797.098 1.245l-2.327 1.294c-.187.105-.407.097-.61.032h-.057a48.956 48.956 0 00-5.51-2.01c-.78-.227-.877-.691-.227-1.18.65-.487.537-.748-.26-.675l-4.141.415c-.773.082-.782.301-.033.537.724.26.83.757.228 1.18-1.904 1.367-4.426 2.653-6.566 3.54-.244.08-.53.048-.708-.122l-1.554-1.294c-.733-.594-.643-1.082.252-1.392a34.6 34.6 0 003.547-1.358c.879-.4.798-.668-.17-.57l-.944.098c-.415.04-.716-.204-.757-.619l-.944-9.398c-.04-.414.212-.716.619-.756l16.549-1.66c.415-.04.716.203.757.618l.944 9.398c.04.415-.203.716-.618.757l.008-.017zM36.909 8.739l-1.326.139a.42.42 0 00-.358.341c-.057.285-.14.546-.196.806-.081.342.057.578.423.57.415-.041.773-.05 1.026-.106.333-.033.553-.082.724-.293v-.025c.097-.146.179-.463.179-1.025 0-.252-.187-.431-.464-.398l-.008-.009zm-.936 7.942c.025.252.179.374.423.35l9.642-.969c.22-.024.342-.179.317-.423-.024-.22-.171-.35-.398-.325l-9.642.968c-.252.024-.374.179-.35.399h.008zm.285 2.815c.024.22.17.35.399.325l9.674-.968c.22-.024.342-.179.325-.399-.024-.22-.18-.341-.398-.325l-9.675.968c-.22.025-.35.18-.325.399zm.285 2.815c.024.252.179.375.423.35l9.642-.968c.219-.025.349-.171.325-.423-.024-.22-.18-.35-.4-.326l-9.64.969c-.253.024-.375.179-.35.398zm14.613-17.6l.626 6.274c.04.415-.203.716-.618.765l-8.348.838c-.415.04-.716-.212-.765-.618l-.626-6.274c-.041-.415.203-.716.618-.756l8.348-.838c.415-.041.716.203.765.618v-.008zm-3.271 4.126l-.13-1.245c-.025-.252-.212-.399-.456-.374l-1.798.179c-.252.024-.4.211-.374.455l.122 1.245c.024.253.21.4.455.375l1.799-.18c.252-.024.398-.21.374-.455h.008zm30.869 13.507c.22-.017.293-.22.293-1.44 0-.863.423-1.115 1.22-.839.375.139.774.253 1.14.342.34.09.553.35.553.716-.081 3.239-.846 4.15-2.596 4.272l-1.358.098c-2.441.17-3.003-.79-3.206-3.646l-.228-3.238a.323.323 0 00-.358-.31c-.195.017-.325.164-.334.359-.18 3.051-.968 5.638-3.84 7.534-.342.244-.716.139-.96-.187v-.057c-.13-.187-.285-.366-.464-.578-.122-.162-.35-.252-.578-.235l-5.15.366a.512.512 0 00-.488.561.508.508 0 01-.49.562l-2.073.146c-.415.033-.708-.228-.741-.643l-.561-8.006c-.016-.195-.098-.22-.228-.098s-.27.13-.366-.032c-.407-.586-1.107-1.424-1.676-2.083-.277-.318-.27-.708.04-1.034a17.869 17.869 0 001.815-2.27c.399-.643.146-1.066-.627-1.017l-.586.04c-.414.033-.716-.227-.74-.642l-.114-1.554c-.032-.415.285-.716.7-.749.472-.032.594-.236.22-.488l-.057-.024c-.204-.122-.407-.277-.643-.399-.464-.277-.553-.683-.252-1.155.732-1.082 1.3-2.458 1.65-3.792.083-.399.4-.61.799-.529l2.058.334c.399.081.643.398.529.797-.114.399.073.635.488.61l5.46-.382c.415-.033.708.228.74.643l.106 1.554c.033.415-.228.708-.643.74l-2.546.18a.72.72 0 00-.66.544l-.04.171v.057c-.138.375.049.635.496.61l2.962-.211c.415-.033.716.228.74.643l.114 1.554c.033.415-.228.716-.643.74l-1.692.122c-.635.05-.635.098.008.171l.285.033c.472.024.667.341.448.773-.22.431-.066.7.406.667l.61-.04c.416-.033.717.227.74.642l.074 1.025c.033.415-.228.716-.643.74l-1.358.098c-.31.025-.49.228-.464.505.024.309.228.488.537.464l.968-.074c.415-.032.716.228.74.643l.066.911c.032.415-.228.716-.643.74l-1.025.074c-.277.016-.432.195-.415.448.016.276.195.43.472.415l1.025-.074c.415-.032.716.228.74.643l.065.911c.033.415-.227.716-.642.74l-1.001.074a.459.459 0 00-.44.504.459.459 0 00.505.44l1.717-.122c.138-.008.227.065.236.203.016.171.097.187.203.098.985-.993 1.375-2.189 1.538-3.507.032-.366-.212-.594-.57-.57s-.626-.203-.651-.57L68.429 3.19c-.033-.415.228-.716.643-.74l9.308-.66c.415-.032.716.229.74.644l1.034 14.735c.032.415-.228.716-.643.74l-.944.065c-.415.033-.675.326-.643.74l.196 2.824c.056.749.056.83.284.814l.358-.025-.008.017zm-19.26-13.84l.39-.025c.14-.008.303-.106.343-.244.098-.228.163-.488.228-.716.09-.285-.057-.44-.334-.423l-.252.016a.386.386 0 00-.317.22l-.374.667c-.196.35-.074.537.317.504zm3.36 7.282c-.023-.253-.202-.407-.454-.383l-.334.025c-.252.016-.407.195-.39.447v.138c.024.253.203.407.455.391l.334-.024c.252-.017.407-.196.39-.448v-.146zm.22 3.295v-.033c-.023-.252-.194-.406-.447-.39l-.333.024c-.252.017-.407.196-.391.448v.024c.025.252.196.407.448.39l.333-.024c.253-.016.407-.195.39-.447v.008zm0-7.876l-.22.016c-.137.008-.3.106-.34.244l-.432.952c-.171.374-.016.586.375.561l.39-.024c.163-.008.3-.13.366-.3.09-.343.179-.684.236-1.018.065-.285-.114-.44-.366-.423l-.008-.008zm-.943 11.09v.114c.025.252.204.407.456.39l.333-.024c.253-.016.407-.195.39-.448v-.114c-.023-.252-.202-.406-.455-.39l-.333.024c-.253.017-.407.196-.391.448zm9.82-16.281l.025.333c.017.252.196.407.448.39l3.043-.21c.252-.017.407-.196.39-.448l-.024-.334c-.016-.252-.195-.407-.447-.39l-3.052.211c-.252.016-.406.195-.382.448zm.294 4.125l.024.39c.017.253.196.407.448.391l3.043-.22c.252-.016.407-.195.39-.447l-.024-.39c-.016-.253-.195-.408-.447-.391l-3.052.211c-.252.016-.406.196-.382.448v.008zm.293 4.158l.024.39c.017.252.196.407.448.39l3.05-.21c.253-.017.408-.196.392-.448l-.033-.39c-.016-.253-.195-.408-.448-.391l-3.043.211c-.252.016-.406.195-.39.448zm32.692 6.769c.643-.024.814-.423.863-2.701 0-.838.456-1.074 1.196-.74.594.252 1.245.48 1.774.626a.692.692 0 01.529.732c-.22 4.32-1.14 5.55-3.89 5.663l-2.774.114c-3.328.139-4.215-1-4.353-4.524l-.261-6.493c-.016-.415-.31-.683-.724-.667l-1.806.073c-.391.017-.66.277-.667.668-.277 4.963-1.367 8.925-7.543 11.513-.358.154-.691 0-.903-.326-.334-.602-.83-1.277-1.302-1.839-.496-.537-.407-1.017.285-1.293 4.516-1.88 5.159-4.467 5.362-7.779.008-.447-.285-.74-.724-.724l-4.662.187c-.415.016-.708-.252-.725-.667l-.09-2.221c-.015-.415.253-.708.668-.724l8.519-.342c.415-.016.684-.31.667-.724L94.344.83c-.016-.415.252-.708.667-.725L97.541 0c.415-.017.708.252.725.667l.325 8.047c.016.415.309.683.724.667l8.772-.358c.414-.016.707.252.724.667l.089 2.222c.016.415-.252.707-.667.724l-5.354.22c-.415.016-.683.309-.667.724l.26 6.468c.04 1.001.155 1.131.903 1.107l1.864-.073-.008-.017zM92.156 7.804L89.78 8.878c-.464.211-.838 0-.992-.464-.472-1.457-1.335-3.336-2.205-4.947-.212-.407-.09-.806.349-.985l2.165-.92c.325-.121.667-.023.846.27 1.009 1.651 2.034 3.612 2.57 5.15.13.358-.031.667-.357.822zM103.807.855l2.7.781c.449.122.636.505.432.96-.92 1.953-1.871 3.914-2.734 5.362a.67.67 0 01-.797.285l-2.116-.667c-.48-.18-.634-.562-.406-1.01a31.522 31.522 0 002.018-5.198c.122-.423.48-.635.895-.513h.008zm22.05 21.936l-1.587-2.425c-.366-.553-.154-.968.488-1.09.554-.122 1-.236 1.473-.35 3.328-.846 5.517-3.205 5.476-6.623-.041-3.108-1.456-5.37-4.02-6.232-.423-.163-.781.09-.83.537a52.466 52.466 0 01-1.342 6.07c-1.49 5.24-3.783 8.795-6.867 8.836-3.222.04-5.77-3.458-5.818-7.9-.073-6.193 5.224-11.538 12.22-11.628 6.64-.081 10.92 4.45 10.994 10.399.065 5.362-3.003 9.373-9.487 10.7a.694.694 0 01-.7-.302v.008zm-3.28-16.159c.082-.39-.146-.586-.504-.44-3.458 1.294-5.142 4.565-5.11 6.957.025 2.254.822 3.434 1.709 3.426 1.058-.016 1.839-1.603 2.726-4.646.513-1.595.903-3.458 1.188-5.297h-.008zm27.616 3.922c1.48-.252 2.954-.399 4.117-.383 4.109.066 7.494 2.254 7.437 6.12-.05 3.058-1.472 5.532-5.964 6.606-1.033.236-2.058.334-3.035.374-.333.025-.578-.179-.691-.48l-.904-2.685c-.187-.561.074-.92.65-.911.888-.016 1.669-.057 2.312-.163 2.01-.3 3.49-1.229 3.515-2.84.025-1.53-1.27-2.49-3.434-2.522a17.798 17.798 0 00-3.954.383c-.31.08-.537.35-.513.683 0 1.75.033 3.312.025 4.028-.057 3.694-1.375 4.564-3.263 4.532-2.831-.041-6.517-2.376-6.477-5.403.033-2.221 2.49-4.548 5.566-5.948.277-.106.447-.382.423-.635l.04-2.497c0-.358-.211-.562-.545-.562h-.585c-.944-.024-2.116-.04-3.165-.138a.65.65 0 01-.603-.675l-.016-2.393c-.024-.472.293-.748.789-.708 1.196.13 2.165.147 2.97.155h.61c.367.016.619-.26.619-.618l.016-1.058c0-.366-.008-1.115-.057-1.75-.024-.471.26-.805.765-.797l2.693.04c.472 0 .749.318.684.79-.065.586-.163 1.302-.196 1.75l-.04.667c-.033.39.21.642.602.594a50.03 50.03 0 003.01-.537c.529-.106.863.154.855.683l.016 2.474c0 .358-.236.634-.57.683a48.761 48.761 0 01-3.563.505c-.334.024-.586.3-.62.634l-.023 1.611c0 .31.187.448.496.399l.008-.008zm-4.117 7.388c0-.39-.016-1.001 0-1.75-.024-.415-.268-.56-.61-.317-.952.627-1.522 1.31-1.53 1.953-.008.586.846 1.123 1.343 1.13.415 0 .78-.072.797-1.016zm9.886-12.303l1.082-1.847c.17-.333.537-.439.895-.268 1.79.887 4.077 2.148 5.484 3.06.334.227.407.593.212.919l-1.14 1.952c-.26.415-.675.489-1.057.204-1.351-.936-3.661-2.278-5.15-3.027-.415-.228-.546-.618-.318-1.009l-.008.016zM187.93 16.68h.025l1.766 1.636c.398.383.358.822-.13 1.107-.66.358-1.31.691-1.961 1.025-.88.431-.88.96.057 1.229a28.18 28.18 0 002.205.512c.878.18 1.025.66.472 1.35-.44.538-.855 1.132-1.188 1.677a.721.721 0 01-.765.358c-3.141-.724-5.59-1.83-7.518-3.442-.668-.561-1.066-.407-1.074.456v.78c-.025.392-.285.66-.676.668-3.344.187-6.851.342-9.634.472-.414.008-.683-.228-.724-.643l-.211-2.123c-.041-.448.228-.765.675-.773.39.016.806 0 1.22 0 .39-.008.652-.277.668-.668l.447-10.292c.033-.692-.374-.936-1-.684-.285.13-.57.252-.847.35h-.057c-.341.155-.667 0-.846-.342a21.548 21.548 0 00-1.14-1.855c-.365-.512-.235-.952.359-1.18 3.865-1.39 7.526-3.816 9.6-6.029V.237c.172-.13.375-.236.57-.228l3.272.146a.764.764 0 01.52.244c2.539 3.003 5.94 5.314 9.52 6.721.659.252.749.7.309 1.213a26.187 26.187 0 00-1.472 1.969c-.212.293-.545.39-.847.244-.301-.122-.57-.277-.846-.423-.602-.301-1.025-.098-1.058.594l-.26 5.882c0 .139.073.196.195.09a.273.273 0 01.39.016l-.015-.024zm-12.896 1.36l-.097 2.302c-.017.277.146.456.423.44l3.149-.114c.528 0 .626-.277.309-.684a16.405 16.405 0 01-1.245-2.026.394.394 0 00-.35-.236l-1.75-.073c-.252-.008-.423.146-.431.399l-.008-.008zm.562-3.312l7.518.325c.252.008.423-.146.43-.398v-.114c.017-.252-.145-.423-.39-.431l-7.518-.326c-.252-.008-.423.146-.431.399v.114c-.016.252.147.423.39.43zm-.236-4.15v.082c-.017.252.146.423.39.43l7.518.326c.253.008.424-.146.432-.398v-.082c.016-.252-.147-.423-.391-.431l-7.518-.325c-.252-.009-.423.146-.431.398zm6.745-3.043l1.139.049c.863.04.96-.269.285-.765-1.318-1-2.498-2.026-3.401-3.035-.187-.203-.407-.211-.611-.024-.96.935-2.164 1.855-3.54 2.734-.715.44-.642.748.22.789l1.14.049c.252.008.423-.147.439-.399l.04-.862c.009-.253.188-.407.432-.4l3.108.14c.253.007.407.186.399.43l-.041.863c-.008.252.147.423.399.431h-.008zm1.855 10.472l-1.692-.073c-.586-.025-.708.244-.31.65.212.204.456.408.725.619.105.114.276.122.415.073l1.025-.537c.74-.382.667-.691-.163-.732zm35.012.236l-.106 1.497c-.033.415-.326.675-.741.643l-1.383-.106c-.415-.033-.716.228-.74.643l-.236 3.181c-.033.415-.326.676-.741.643l-2.66-.195c-.334-.025-.537-.26-.513-.594a.503.503 0 00-.488-.562l-3.133-.227c-.114-.009-.17.04-.18.154l-.015.163c-.13 1.75-.594 2.433-1.765 2.88-1.058.366-2.368.358-4.305.22a.728.728 0 01-.66-.578 16.039 16.039 0 00-.406-1.285c-.276-.74 0-1.14.806-1.058l1.717.122c.504.008.675-.147.708-.586l.016-.17c.008-.115-.041-.172-.155-.18l-6.843-.496c-.415-.033-.675-.326-.642-.74l.097-1.302c.033-.415.326-.676.74-.643l6.624.48c.22.016.399-.138.415-.39a.38.38 0 00-.358-.416l-9.195-.667c-.414-.032-.675-.325-.642-.74l.105-1.497c.033-.415.326-.676.74-.643l9.252.675c.195.016.342-.114.358-.333.016-.196-.114-.342-.31-.358l-6.508-.472c-.415-.033-.676-.326-.643-.74l.08-1.14c.034-.415.327-.675.742-.643l6.452.472c.22.016.399-.138.415-.39a.38.38 0 00-.358-.415l-5.875-.432c-.415-.032-.675-.325-.642-.74l.3-4.182c.033-.415.326-.676.74-.643l5.876.431c.219.017.398-.138.415-.39a.38.38 0 00-.358-.415l-8.527-.619c-.415-.032-.676-.325-.643-.74l.114-1.579c.032-.415.325-.675.74-.642l8.226.594c.415.032.716-.285.749-.7.032-.415.333-.724.748-.7l2.523.187c.415.033.667.383.634.798-.032.415.228.773.643.797l8.446.618c.415.033.675.326.643.74l-.114 1.58c-.033.414-.326.675-.741.642l-8.722-.635c-.252-.016-.431.139-.448.358-.016.253.139.432.383.448l6.15.447c.416.033.676.326.644.74l-.301 4.183c-.033.415-.326.675-.741.643l-6.151-.448c-.252-.016-.431.139-.447.358-.017.253.138.432.382.448l6.623.48c.415.033.675.325.643.74l-.13 1.831c-.033.415.228.716.643.74l1.383.106c.415.033.675.326.643.74l.008.009zm-16.77-8.291l2.466.179c.252.016.43-.139.447-.383v-.081c.025-.252-.13-.431-.382-.448l-2.466-.179c-.252-.016-.431.139-.447.383v.081c-.025.252.13.431.382.448zm9.91 10.382a.38.38 0 00-.357-.415l-3.02-.22c-.251-.016-.43.139-.447.358-.016.253.139.432.383.448l3.018.22c.22.016.399-.139.415-.391h.009zm-3.555-3.906c-.016.22.114.375.333.391l3.133.228c.195.016.342-.114.358-.334.016-.195-.114-.342-.31-.358l-3.132-.228c-.22-.016-.366.114-.382.31v-.009zm3.409-6.688l-2.49-.179c-.252-.016-.431.138-.447.383v.081c-.025.252.13.431.382.447l2.49.18c.252.016.43-.139.448-.383v-.081c.024-.253-.131-.432-.383-.448zm25.223-.65l-.17 2.188c0 .334-.261.586-.57.643-.96.122-2.205.252-3.523.333a.708.708 0 00-.602.383c-1.505 3.222-3.816 6.948-6.013 9.633a.628.628 0 01-.88.13l-2.383-1.505c-.447-.268-.488-.724-.138-1.074 1.985-2.197 3.922-4.987 5.215-7.257.13-.212.04-.358-.211-.383l-.44-.049c-.911-.097-1.798-.187-2.758-.341a.665.665 0 01-.57-.7l.066-2.287c0-.528.366-.797.878-.691a20.639 20.639 0 004.272.578c.277.032.545-.171.635-.44.317-.92.586-1.896.74-2.831.098-.407.407-.66.838-.554l2.767.537c.488.106.675.464.52.92-.122.382-.276.78-.44 1.245-.235.642.042 1.009.717.935.423-.04.846-.105 1.245-.154.537-.082.846.203.822.724l-.017.016zm.017 4.751l2.49.26c.439.05.69.375.642.822-.122.912-.195 1.88-.268 2.905-.025.504-.073 1.277-.106 2.14 0 .252.147.52.382.65 1.774.969 3.182 2.173 4.264 3.312.228.244.244.61.024.871l-1.554 2.05c-.325.415-.74.423-1.066.057-.431-.463-.878-.96-1.383-1.48-.561-.538-.968-.35-1.236.35-.66 1.806-2.287 2.92-5.436 2.595-3.458-.358-5.972-2.238-5.663-5.248.269-2.596 2.57-4.622 6.575-4.215.219.024.47.049.69.098.384.065.66-.155.7-.57.058-1.334.147-2.774.188-3.946.04-.415.35-.692.765-.651h-.008zm-1.522 8.56a5.888 5.888 0 00-1.416-.342c-1.27-.13-2.123.31-2.196 1.033-.09.855.569 1.514 1.676 1.628 1.44.146 2.018-.578 2.229-1.84.016-.194-.098-.43-.285-.48h-.008zm10.74-8.617l-1.635 2.01c-.285.333-.675.35-1.041.065-1.31-1.14-3.255-2.571-4.752-3.507-.423-.236-.521-.667-.195-1.058l1.472-1.806a.609.609 0 01.855-.163c1.578.92 3.88 2.466 5.223 3.523.309.228.358.627.073.928v.008zm10.406.276a75.5 75.5 0 00-1.008 3.198c-.228.838.155 1.14.977.863 2.026-.716 4.068-.887 6.102-.618 4.874.642 7.11 4.019 6.696 7.184-.634 4.76-4.548 8.137-15.5 5.818-.276-.041-.496-.293-.545-.545l-.423-2.718c-.114-.66.269-.977.895-.806 6.745 1.733 10.765.586 11.163-2.416.196-1.457-1.065-2.742-3.132-3.019-2.645-.35-5.305.31-7.063 1.953a8.441 8.441 0 00-.976.993c-.203.284-.53.407-.88.276l-2.285-.92c-.374-.162-.521-.487-.415-.87.773-2.473 1.79-6.346 2.408-9.487.09-.44.423-.675.855-.529l2.652.716c.464.114.635.505.496.936l-.016-.008zm-.83-3.27l.953-2.311c.163-.399.545-.545.944-.382 2.417.992 6.558 2.294 8.885 2.912.456.147.635.505.464.928l-.936 2.425c-.13.35-.464.529-.813.423-2.563-.757-6.925-2.262-9.113-3.108-.375-.13-.521-.521-.391-.895l.008.008z" fill="#fff" stroke-width="0" id="_レイヤー_1-2" data-name="レイヤー 1"/></svg>