<svg id="_レイヤー_2" data-name="レイヤー 2" xmlns="http://www.w3.org/2000/svg" width="802.069" height="210" viewBox="0 0 802.069 210"><path d="M322.052 103.441h4.182a40.64 40.64 0 004.402-.277c.936-.114 1.546.439 1.546 1.375v5.338c0 .878-.553 1.432-1.432 1.375-1.432 0-2.921-.057-4.019-.057h-4.402c-.879 0-1.432.553-1.375 1.432.114 7.046.333 14.312.439 21.196.057 3.742-2.034 5.89-6.493 5.89-3.027 0-5.557-.057-8.316-.219-.659 0-1.212-.554-1.269-1.213l-.439-5.337c-.114-.993.496-1.595 1.546-1.489 1.871.219 3.743.333 5.012.333s1.766-.659 1.766-2.205v-7.599c-.057-2.311-.993-2.645-2.588-.936-4.573 4.841-10.903 9.797-17.07 13.214a1.358 1.358 0 01-1.652-.334l-3.857-4.402c-.716-.829-.553-1.708.439-2.148 7.925-4.019 14.752-9.251 18.942-14.092 1.099-1.212.611-2.091-.992-2.091h-9.797c-1.546 0-3.417.057-5.069.114-.879.057-1.432-.497-1.432-1.375v-5.338c0-.936.659-1.489 1.595-1.432 1.489.163 3.36.277 4.735.277h14.866c.822 0 1.375-.611 1.375-1.432l-.114-1.595c-.057-1.213-.22-2.75-.382-4.296-.057-.936.439-1.546 1.432-1.546h5.728c.936 0 1.489.659 1.375 1.595-.114 1.432-.163 2.978-.114 4.239l.057 1.651c0 .83.553 1.375 1.375 1.375v.009zm51.098-5.785c.39-.057.83 0 1.155.276l3.58 2.588c.602.439.773 1.212.334 1.814v.114c-.44.83-1.05 1.814-1.432 2.644-1.595 3.637-4.077 8.365-7.16 12.775-.44.659-.334 1.375.219 1.871 4.402 3.963 9.528 9.3 12.441 12.718.496.602.439 1.375-.163 1.928l-5.117 4.459c-.717.602-1.489.496-2.035-.277-2.969-4.019-6.663-8.201-10.626-12.058-.602-.61-1.375-.61-1.985 0-5.012 5.061-11.123 9.69-17.291 12.831-.496.277-1.155.163-1.594-.276l-4.402-4.573c-.879-.936-.659-1.815.496-2.311 7.762-3.303 15.142-9.137 19.381-13.93 2.865-3.246 5.338-6.989 6.664-10.073.44-1.05-.114-1.766-1.212-1.766h-14.369c-1.709 0-3.686.163-5.232.334-.879.057-1.489-.496-1.489-1.375v-5.948c0-.936.602-1.489 1.595-1.432 1.765.163 3.962.277 5.118.277h17.453c2.205 0 4.239-.277 5.557-.61h.114zm52.708 0c.391-.057.83 0 1.156.276l3.58 2.588c.602.439.773 1.212.334 1.814v.114c-.44.83-1.05 1.814-1.433 2.644-1.594 3.637-4.076 8.365-7.16 12.775-.439.659-.333 1.375.22 1.871 4.402 3.963 9.528 9.3 12.441 12.718.496.602.439 1.375-.163 1.928l-5.118 4.459c-.716.602-1.489.496-2.034-.277-2.97-4.019-6.664-8.201-10.626-12.058-.602-.61-1.375-.61-1.986 0-5.012 5.061-11.122 9.69-17.29 12.831-.496.277-1.155.163-1.595-.276l-4.401-4.573c-.879-.936-.66-1.815.496-2.311 7.762-3.303 15.142-9.137 19.381-13.93 2.864-3.246 5.338-6.989 6.664-10.073.439-1.05-.114-1.766-1.212-1.766h-14.37c-1.708 0-3.685.163-5.231.334-.879.057-1.489-.496-1.489-1.375v-5.948c0-.936.602-1.489 1.594-1.432 1.766.163 3.963.277 5.118.277h17.453c2.205 0 4.239-.277 5.558-.61h.113zm50.13-2.149l6.721 2.482c.935.383 1.212 1.156.716 2.034a143.543 143.543 0 00-1.546 3.141c-1.652 3.743-3.906 7.982-6.884 12.555-.439.61-.333 1.375.277 1.814 3.743 3.027 7.819 6.607 10.732 9.3.602.497.659 1.27.114 1.872l-4.573 5.231c-.602.66-1.432.66-2.034.057-2.864-2.921-6.111-5.947-9.577-8.917-.602-.554-1.375-.497-1.928.162-4.02 4.793-9.471 10.513-15.964 14.589h-.114c-.496.277-1.098.22-1.595-.162l-5.289-4.842c-.935-.83-.772-1.708.277-2.31 5.997-3.19 11.229-7.763 15.639-12.881.553-.659.496-1.432-.22-1.985-3.417-2.53-7.543-5.451-10.846-7.486-.879-.496-1.05-1.318-.383-2.091l3.8-4.402c.44-.553 1.099-.659 1.709-.333 3.084 1.814 7.266 4.621 11.009 7.266.716.496 1.489.333 1.928-.383 2.254-3.466 4.02-7.103 5.175-10.349.277-.993.659-2.205.936-3.304.219-.992.992-1.432 1.928-1.049l-.008-.009zm26.704 36.395c0-3.246 2.588-5.785 6.168-5.785s6.167 2.531 6.167 5.785c0 3.255-2.587 5.728-6.167 5.728s-6.168-2.367-6.168-5.728zm2.75-10.016l-1.985-15.248v-.114l-.277-7.209c-.057-.878.497-1.432 1.375-1.432h8.641c.879 0 1.432.554 1.376 1.432l-.277 7.209v.114l-1.985 15.248c-.114.716-.66 1.213-1.376 1.213h-4.125c-.716 0-1.269-.497-1.375-1.213h.008zM395.81 63.905l3.45.366c.488.065.765.431.643.92l-.431 1.928c-.066.456-.155.92-.277 1.375-.122.578.187.92.765.887h.976c3.304 0 5.5 1.562 5.5 5.834 0 3.393-.398 8.006-1.619 10.545-.976 2.075-2.66 2.815-5.012 2.815-.919 0-2.05-.122-2.994-.309-.309-.065-.521-.334-.578-.61l-.455-2.905c-.122-.7.244-1.042.976-.92.887.188 1.831.334 2.327.334.919 0 1.562-.309 1.953-1.098.732-1.441 1.066-4.703 1.066-7.364 0-2.107-.887-2.351-2.661-2.351-.212 0-.488 0-.797.032a.78.78 0 00-.7.578c-1.131 4.247-3.059 10.358-5.256 14.206a.753.753 0 01-.952.309l-3.027-1.22c-.553-.212-.675-.675-.334-1.164 2.197-3.36 3.816-7.762 4.825-11.277.155-.553-.122-.83-.643-.765l-.919.122c-.708.09-1.806.244-2.718.4-.488.064-.854-.212-.886-.7l-.245-2.962c-.032-.521.31-.855.822-.855.822.033 1.619 0 2.449-.032.733-.033 1.652-.065 2.718-.155.334 0 .61-.276.675-.61.309-1.652.456-3.181.456-4.557.032-.52.334-.854.887-.797h.016zm15.036 3.328c-.309.122-.398.399-.211.7 1.497 2.57 3.271 6.63 4.125 9.194.155.399-.032.765-.399.92l-2.961 1.375c-.554.244-.952.032-1.099-.554-.732-2.937-2.229-6.81-3.881-9.349-.333-.488-.211-.952.334-1.196l.822-.333c.455-.212.61-.643.398-1.066-.366-.676-.732-1.375-1.098-1.986-.277-.488-.155-.944.366-1.163l1.286-.52a.723.723 0 01.919.276c.578.92 1.22 2.107 1.684 2.994.155.277.033.578-.276.7l-.009.008zm3.393-1.343l-1.318.578c-.398.155-.797 0-1.009-.366a23.868 23.868 0 00-1.44-2.539c-.309-.52-.187-.976.366-1.196l1.253-.488a.724.724 0 01.92.277 57.868 57.868 0 011.586 2.717c.212.399.066.822-.366 1.01l.008.007zM164.52 70.91l-8.568 2.352c-.586.163-.87.66-.708 1.245l.106.39c.163.586.659.871 1.245.708l6.338-1.74c.586-.164 1.082.121 1.245.707l2.978 10.879c.163.585-.122 1.082-.708 1.245l-3.954 1.082a.474.474 0 01-.602-.342.466.466 0 00-.594-.342l-10.016 2.742a.466.466 0 00-.342.594.477.477 0 01-.342.602l-3.718 1.017c-.586.163-1.082-.122-1.245-.707l-2.978-10.879c-.163-.586.122-1.082.708-1.245l5.866-1.611c.586-.163.871-.66.708-1.245l-.106-.39c-.162-.586-.659-.871-1.244-.708l-7.242 1.985c-.586.163-1.082-.122-1.245-.708l-.781-2.856c-.163-.586.122-1.082.708-1.245l7.241-1.985c.586-.163.871-.66.708-1.245l-.146-.545c-.163-.586-.659-.87-1.245-.708l-7.356 2.018c-.585.163-.87.659-.707 1.245 1.635 6.281 3.303 15.126 1.456 21.895-.187.684-.716.912-1.375.668a28.837 28.837 0 00-3.303-.863c-.765-.171-1.066-.675-.895-1.432 1.765-6.46-.074-14.239-1.595-19.796l-2.767-10.057c-.162-.586.122-1.082.708-1.245l26.729-7.323c.586-.163 1.082.122 1.245.708l2.498 9.121c.162.586-.122 1.082-.708 1.245l-6.575 1.798c-.585.163-.87.66-.707 1.245l.146.545c.163.586.659.87 1.245.708l8.568-2.351c.586-.163 1.082.122 1.245.708l.781 2.855c.162.586-.122 1.083-.708 1.245l.008.017zm-10.838-11.757l-16.59 4.54c-.35.098-.521.4-.424.749l.139.505c.097.35.398.52.748.423l16.591-4.54c.35-.098.521-.4.423-.75l-.138-.504c-.098-.35-.399-.52-.749-.423zm6.639 22.539l-.374-1.367c-.097-.35-.398-.521-.748-.423l-9.781 2.676c-.349.098-.52.399-.423.749l.375 1.367c.097.35.398.521.748.423l9.78-2.677c.35-.098.521-.399.423-.748zm41.131-33.124l-5.037 1.098c-.594.13-.903.618-.773 1.212l.139.635c.13.594.61.903 1.212.773l4.239-.928c.594-.13 1.082.18 1.213.773l5.288 24.19c.13.594-.179 1.074-.773 1.205l-3.45.756c-.472.106-.813-.114-.911-.545-.106-.472-.439-.691-.879-.594l-12.017 2.628c-.472.106-.692.44-.586.92.097.439-.122.773-.562.87l-3.254.708c-.594.13-1.082-.179-1.213-.773l-5.288-24.19c-.131-.594.179-1.074.773-1.212l4.003-.879c.594-.13.903-.618.773-1.212l-.139-.635c-.13-.594-.618-.903-1.212-.773l-4.719 1.034c-.594.13-1.074-.18-1.204-.773l-.057-.277c-.163-.757-.505-.806-.806-.073l-1.106 2.53c-.244.594-.781.798-1.375.545-1.4-.52-3.336-1.18-4.98-1.692-.627-.195-.871-.765-.594-1.408l1.359-2.913c.236-.423.691-.65 1.171-.545 1.587.399 3.564.928 5.078 1.383.488.147.773-.08.659-.602-.114-.52.162-.952.683-1.066l23.279-5.093c.594-.13 1.074.179 1.212.773l.643 2.937c.13.594-.179 1.082-.773 1.213h-.016zM177.465 61.83l-1.399 3.295c-.212.546-.749.75-1.335.546-1.35-.497-3.311-1.066-4.947-1.538-.667-.187-.911-.757-.634-1.4l1.35-2.953c.204-.415.643-.684 1.131-.537 1.652.342 3.711.805 5.265 1.26.618.156.862.725.577 1.327h-.008zm.171 20.944l-3.686-1.27c-.537-.17-.765-.659-.643-1.228.806-2.962 1.701-7.063 2.36-11.074.122-.773.716-1.115 1.4-.806l3.165 1.343c.455.187.675.602.642 1.025l.017.082a248.13 248.13 0 01-1.92 11.179c-.139.692-.7.985-1.335.749zm8.519-23.181l-.993.22c-.358.08-.545.366-.463.724l.594 2.733c.154.716.602.863.96.204.659-1.18.577-2.287.358-3.32l-.073-.317c-.041-.196-.188-.293-.383-.244zm12.864 4.67l-1.587.35c-3.214.7-4.19-.374-4.995-4.06l-.358-1.628c-.082-.358-.367-.545-.725-.463l-.398.09c-.236.048-.366.243-.318.447l.09.398c.553 2.539.464 5.55-2.343 8.113-.245.22-.538.203-.782.048l-.577-.374c-.578-.374-.903-.138-.757.537l.122.553c.081.358.366.545.724.464l12.295-2.685c.358-.081.545-.366.463-.724l-.13-.594c-.081-.358-.366-.545-.724-.464v-.008zm-10.504 10.854l12.294-2.685c.358-.081.545-.366.464-.724l-.138-.635c-.082-.358-.367-.545-.725-.463l-12.294 2.685c-.358.081-.545.366-.464.724l.139.634c.081.358.366.546.724.464zm2.514-22.156l-.309-1.424c-.082-.358-.366-.545-.724-.463l-.676.146c-.358.082-.545.366-.464.724l.31 1.432c.081.358.366.545.724.464l.675-.146c.358-.082.545-.366.464-.724v-.009zm7.591 6.607l-.431-1.985c-.081-.358-.366-.545-.724-.464l-.83.18c-.358.08-.545.365-.464.723l.326 1.506c.171.797.26.813.74.707l.993-.22.228-.089c.105-.065.203-.211.17-.366l-.008.008zm37.835 7.592l9.244-1.57c.602-.107 1.065.227 1.171.83l.391 2.278c.106.602-.228 1.065-.83 1.171l-25.411 4.329c-.602.106-1.066-.228-1.171-.83l-.391-2.278c-.106-.602.228-1.066.83-1.172l8.999-1.53c.521-.09.822-.512.724-1.074-.089-.52-.512-.822-1.033-.732l-6.599 1.123c-.602.106-1.066-.228-1.172-.83l-.39-2.278c-.106-.602.228-1.066.83-1.172l6.68-1.14c.48-.08.749-.455.659-.976-.081-.48-.456-.748-.928-.626l-7.152 1.546c-.594.138-1.057-.187-1.204-.781l-.496-2.18c-.147-.635.179-1.1.814-1.254l2.196-.415c.358-.057.611-.309.765-.586l.025-.09.17-.438a1.17 1.17 0 01.066-.09c.187-.61-.082-.976-.765-.854l-2.799.48c-.562.097-.895.561-.838 1.13.642 5.696.74 12.311-1.115 17.405-.26.659-.846.846-1.465.578-.943-.456-2.123-.871-3.116-1.156-.74-.244-1.041-.773-.789-1.513 2.229-6.225 1.082-14.182.122-19.83l-1.741-10.243c-.106-.602.228-1.066.83-1.172l27.526-4.686c.602-.106 1.066.227 1.171.83l1.408 8.242c.106.602-.228 1.066-.83 1.171l-22.367 3.808c-.358.057-.529.293-.472.619.057.358.293.529.618.472l23.344-3.89c.602-.105 1.066.228 1.171.83l.399 2.32c.106.601-.228 1.065-.83 1.171l-1.163.195c-1.278.22-1.392.773-.253 1.44 1.05.602 2.059 1.213 2.865 1.823.569.44.594 1.05.057 1.513l-2.62 2.254c-.391.358-.855.31-1.27.05l-.089-.066c-.252-.244-.529-.447-.814-.683a1.12 1.12 0 00-.814-.188l-3.498.716c-.554.139-.855.562-.757 1.115.106.602.521.903 1.123.798l6.639-1.131c.602-.106 1.066.227 1.172.83l.391 2.278c.105.602-.228 1.066-.83 1.171l-6.681 1.14c-.561.097-.862.52-.773 1.033.098.561.521.862 1.075.765h-.009zm-1.806-25.346l-17.127 2.913c-.358.057-.562.342-.497.7l.041.244c.057.358.342.561.7.496l17.127-2.913c.358-.057.562-.341.496-.7l-.04-.235c-.057-.358-.342-.562-.7-.497v-.008zm-1.391 11.888l-3.279.561c-.163.025-.35.138-.399.317-.163.237-.285.505-.415.733-.301.626-.041.952.627.797l3.628-.7c.432-.113.44-.325.074-.545-.358-.187-.423-.545-.057-.813.325-.26.26-.415-.179-.342v-.008zm20.04-9.577a87.281 87.281 0 017.901 3.58c.52.26.716.806.455 1.335l-1.847 3.791c-.252.562-.805.757-1.367.505-2.229-1.148-5.24-2.604-7.656-3.605-.602-.252-.838-.797-.545-1.407l1.822-3.71c.228-.48.733-.709 1.245-.489h-.008zm.985 17.705c3.767-1.253 7.607-2.888 11.163-5.468 5.541-4.02 10.049-9.422 12.563-14.767.488-1.001 1.172-1.09 1.814-.188l2.913 3.922a.99.99 0 01.049 1.058c-3.011 5.622-7.73 10.927-13.442 15.207-3.409 2.482-8.275 5.02-11.529 6.135-.391.13-.822-.016-1.107-.35l-2.921-3.962c-.537-.708-.325-1.31.497-1.579v-.008zm3.848-27.282c2.498.993 5.72 2.506 7.901 3.58.561.253.716.806.464 1.375l-1.896 3.719c-.252.561-.806.716-1.375.464-2.181-1.074-5.216-2.441-7.641-3.483-.602-.252-.797-.797-.504-1.367l1.766-3.783c.268-.48.773-.708 1.285-.488v-.017zm53.921 19.227l-3.319-1.62c-.725-.34-.822-.984-.31-1.602a51.832 51.832 0 002.539-3.483c.635-1.074.179-1.603-1.05-1.253-1.147.35-2.62.765-4.247 1.278-.594.179-.879.691-.659 1.318 1.741 4.491 3.491 8.975 4.272 10.903l.944 2.319c.26.626.024 1.22-.643 1.44l-3.914 1.326c-.635.18-1.188-.097-1.326-.732-.236-.838-.521-1.79-.838-2.53-.798-2.05-2.466-6.664-4.085-11.123-.211-.553-.683-.798-1.237-.627l-5.069 1.595c-.594.18-1.066-.065-1.285-.659l-1.245-3.515c-.228-.675.097-1.188.781-1.334.797-.155 1.644-.31 2.514-.554.399-.114 1.196-.309 2.23-.602.683-.138.952-.7.699-1.326l-.586-1.579a13.787 13.787 0 00-.805-1.724c-.391-.7-.195-1.286.561-1.514l3.719-1.27c.594-.178 1.147.098 1.326.741l.667 2.018.7 1.937c.212.512.675.756 1.237.626 4.247-1.237 8.535-2.514 10.008-2.929.553-.17 1.147-.39 1.611-.635.309-.154.683-.138.944.041h.081l3.051 1.758c.431.244.594.756.399 1.228-1.408 3.426-4.158 8.641-6.371 11.774-.285.431-.806.561-1.277.317l-.017-.008zm17.404-24.727c2.572 1.644 6.591 4.508 8.991 6.647.472.383.456.952.074 1.376l-3.133 3.588c-.464.472-1.025.504-1.497.081-2.14-1.953-5.793-4.76-8.373-6.525-.594-.375-.667-.977-.252-1.53l2.856-3.41c.342-.422.862-.496 1.326-.235l.008.008zm-3.01 24.719c4.979-1.131 9.259-2.994 12.555-5.175 5.996-3.914 10.536-9.324 13.01-14.418.553-1.05 1.237-1.123 1.904-.106l2.595 4.207c.179.277.204.675.057.968-2.823 5.484-7.843 10.928-13.881 14.923-3.645 2.4-8.234 4.646-12.847 5.72-.399.105-.814-.033-1.042-.391l-2.994-4.1c-.529-.782-.285-1.408.643-1.62v-.008zm39.43-27.372l4.67-.097c.651-.016 1.066.423 1.042 1.074a22.874 22.874 0 00-.041 1.953l.277 13.108c.016.65.073 1.619.13 2.473.057.651-.342 1.107-.993 1.115l-4.792.098c-.611.016-1.026-.424-.993-1.034.024-.813.081-1.79.065-2.563l-.277-13.067a30.835 30.835 0 00-.081-1.904c-.098-.684.301-1.147.993-1.156zm17.729-.74l4.63-.098c.651-.016 1.066.423 1.041 1.074-.024.895-.04 1.872-.016 3.084l.179 8.397c.163 7.754-1.538 11.643-4.442 14.792-2.303 2.523-5.916 4.467-8.658 5.5-.358.172-.813.058-1.098-.26l-2.962-3.588c-.586-.716-.39-1.375.496-1.635 2.783-.952 5.395-2.19 7.299-4.215 2.498-2.815 3.011-5.55 2.897-10.862l-.171-7.999c-.025-1.18-.082-2.148-.228-3.043-.057-.691.301-1.147 1.033-1.155v.008zm15.948 17.876l.065-5.191c.008-.651.464-1.05 1.107-1 1.659.105 4.06.251 5.557.276l20.496.26c1.22.016 2.563-.09 3.613-.154.65-.033 1.09.382 1.082 1.025l-.065 5.19c-.009.652-.423 1.05-1.066 1.002a54.973 54.973 0 00-3.654-.212l-20.496-.268c-1.749-.025-3.978.032-5.606.09-.61 0-1.049-.424-1.041-1.026l.008.008zm57.078-6.322c2.962.146 5.264 2.701 5.118 5.663-.147 2.962-2.701 5.272-5.663 5.118-2.962-.147-5.265-2.701-5.118-5.663.146-2.962 2.701-5.273 5.663-5.118zm33.018-4.451c-.333 1.44-.602 3.084-.675 3.93-.22 2.506-.448 5.012-.472 7.575.041 5.013.504 8.56 2.685 8.755 1.375.122 2.709-2.57 3.621-4.971.431-1.18 1.139-1.326 1.855-.244l2.628 3.865c.179.26.228.667.073 1.025-3.1 6.037-5.687 8.088-8.966 7.795-4.484-.399-7.868-4.573-8.031-15.094-.041-3.629.301-7.957.521-10.382.073-.805.122-1.863.097-2.88-.016-.773.391-1.229 1.164-1.156l4.597.489c.724.065 1.09.585.903 1.301v-.008zm19.235 1.75c2.929 4.621 4.817 13.14 5.004 18.413 0 .447-.285.87-.74.992l-4.435 1.278c-.748.179-1.285-.195-1.302-.977-.26-5.28-1.074-12.644-4.101-17.558-.496-.822-.276-1.449.635-1.652l3.873-.92c.415-.08.806.074 1.066.424zm16.355-1.994l4.369 1.017c.716.171 1.009.74.675 1.432-.35.773-.7 1.587-.887 2.14-1.025 2.856-2.888 8.421-3.246 12.473-.106 1.172.399 1.319 1.025.302l.464-.757c.358-.57.944-.66 1.456-.22l1.107.92c.333.284.472.756.252 1.18-1.53 3.32-2.823 6.63-3.539 8.714-.236.585-.48 1.489-.529 1.855l-.073.887c-.025.529-.44.887-.969.854l-3.507-.122c-.447-.016-.854-.317-.919-.773-.553-2.693-1.09-7.754-.545-11.977a97.679 97.679 0 013.019-14.508c.26-.78.431-1.749.577-2.587.122-.635.619-.985 1.253-.822l.017-.008zm28.478 11.448l-.537 3.816c-.074.562-.489.92-1.058.887l-3.857-.252c-.366 0-.643.203-.683.57l-.082.642c-1.139 8.812-2.791 13.719-10.13 17.6-.39.195-.879.13-1.163-.187l-3.076-3.141c-.683-.7-.521-1.375.391-1.75 1.342-.56 2.79-1.358 3.767-2.213 2.563-2.408 3.816-5.19 4.581-11.074l.065-.52c.032-.285-.139-.513-.423-.545-1.213-.114-2.384-.269-3.467-.407-1.326-.171-3.051-.472-4.727-.773-.561-.114-.911-.57-.838-1.131l.472-3.662c.09-.724.586-1.025 1.294-.854 1.464.35 2.742.602 4.353.805.968.123 1.977.212 3.067.35.611.041 1.066-.309 1.099-.919.154-1.497.284-2.832.309-3.686v-1.554c-.065-.781.407-1.253 1.212-1.155l4.11.528c.723.098 1.065.627.894 1.302-.114.594-.187 1.123-.293 1.644-.122.635-.276 1.847-.463 3.255-.082.642.31 1.106.96 1.147a55.14 55.14 0 003.181.081c.692 0 1.123.472 1.033 1.196h.009zm40.129 3.149l-.659 3.344c-.106.643-.569.928-1.212.822-2.026-.431-4.85-1-8.405-1.643-.635-.106-1.107.22-1.221.862-.187 1.326-.415 2.644-.618 3.849 0 .04-.025.122.008.162l.016.375c.033.048.016.13.049.17.594 1.587.724 3.458.399 5.338-.806 4.72-4.858 10.529-14.19 11.684a1.034 1.034 0 01-1.018-.545l-1.871-3.987c-.399-.806-.049-1.408.871-1.456 2.335-.18 4.369-.53 6.11-1.302l.098-.065c.089-.025.098-.106-.016-.13l-.082-.017h-.244l-.081-.016c-2.791-.52-6.265-3.548-5.435-8.38.781-4.557 4.93-6.689 9.292-5.94l.48.08c.276.05.504-.08.553-.357l.081-.48c.057-.57-.276-1.034-.838-1.131a348.73 348.73 0 00-13.922-1.855c-.642-.106-.976-.537-.911-1.188l.545-3.41c.074-.65.537-.976 1.18-.87 4.199.724 10.057 1.603 14.508 2.286a.36.36 0 00.301-.073.311.311 0 00.114-.187l-.033-.049.016-.081c.074-.895.139-1.79.187-2.523.049-.773.497-1.196 1.253-1.057l4.158.716c.716.122 1.042.667.879 1.342l-.635 2.523-.032.203.106.098c.024.09.097.138.219.162 2.962.505 6.925 1.148 9.162 1.53.602.106.928.57.83 1.172l.008.024zM573.855 59.74c1.196.204 2.587-.423 2.66-3.287a.458.458 0 00-.04-.252c-.342-.635-1.018-1.042-1.815-1.172-1.123-.195-2.522.31-2.807 1.985-.244 1.4.838 2.53 2.002 2.734v-.008zm23.295 17.452l-2.799-2.604c-.415-.382-.464-.927-.074-1.383 1.937-2.4 4.467-5.793 6.713-9.21.431-.651 1.074-.725 1.611-.147l2.254 2.45c.333.365.399.837.146 1.236-1.993 3.222-4.166 6.525-6.362 9.536-.375.586-1.009.61-1.481.13l-.008-.008zm8.608-19.601l-2.62 2.295c-.521.471-1.123.374-1.578-.18-.887-1.065-2.238-2.318-3.499-3.384-.602-.464-.635-1.09-.025-1.587l2.36-2.058c.317-.302.822-.318 1.221-.066 1.48 1.034 3.132 2.393 4.279 3.637.367.415.293.936-.13 1.343h-.008zm3.922-9.569l-2.62 2.295c-.521.472-1.123.374-1.554-.13-.952-1.164-2.327-2.466-3.621-3.58-.553-.497-.586-1.123.008-1.579l2.36-2.058c.358-.293.854-.31 1.253-.017 1.505 1.074 3.197 2.482 4.328 3.768.326.406.293.935-.154 1.293v.008zm20.537 23.897l-.993-.22c-.553-.121-1.025.147-1.188.692-.065.318-.171.586-.277.895-.179.627.122 1.148.757 1.286l.594.13c.594.13.903.61.773 1.213l-.578 2.66c-.13.594-.618.903-1.212.773l-1.432-.309c-.513-.114-.944.13-1.172.618-.48 1.058-.96 1.742-1.416 2.1-1.196 1.106-2.286 1.326-3.645 1.277-1.025-.057-2.424-.325-3.922-.692-.545-.162-.821-.593-.781-1.171.008-.619 0-1.335-.097-2.018-.139-1.074.325-1.505 1.35-1.245.749.203 1.343.334 1.774.431.513.114.944.041 1.343-.244.048-.032.138-.057.146-.09 0-.04.049-.032.057-.073.008-.04.057-.073.024-.122v-.04c-.016-.09-.04-.139-.122-.155l-8.649-1.888c-.512-.114-.96.204-1.188.692-.195.496-.716.797-1.261.635l-3.092-.879c-.708-.195-.96-.749-.651-1.391.79-1.904 1.701-4.158 2.563-6.591.269-.65-.032-1.172-.708-1.318l-.992-.22c-.594-.13-.903-.61-.773-1.204l.643-2.937c.13-.594.61-.903 1.212-.773l1.863.407c.513.113.993-.155 1.18-.66.358-1.082.757-2.123 1.115-3.205.089-.228-.017-.293-.163-.204l-.098.065c-.195.122-.39.082-.553-.122-.618-.797-1.652-1.936-2.587-2.807-.619-.594-.562-1.245.13-1.757 2.538-1.896 4.89-4.874 6.664-8.064.276-.52.773-.7 1.31-.463l3.254 1.456c.602.301.773.83.456 1.343l-.016.08c-.074.156-.196.335-.269.48l-.016.082c-.439.692-.195 1.286.635 1.465l13.327 2.913c.594.13.903.618.773 1.212l-.634 2.897c-.131.594-.611.903-1.213.773l-16.297-3.564a1.028 1.028 0 00-.936.293l-.382.415c-.489.52-.367.92.309 1.066l15.345 3.352c.635.138.944.618.765 1.245-.081.399-.228.862-.293 1.139-.39 1.408-.724 2.75-1.082 4.003-.13.594.171 1.115.765 1.245l.635.138c.594.13.903.619.773 1.213l-.643 2.937c-.13.594-.61.903-1.204.773v.033zm-16.965-3.165l-.61 1.652c-.131.39.048.716.447.806l1.31.284c.317.065.594-.08.708-.382.163-.545.358-1.082.529-1.668.13-.39-.049-.716-.448-.806l-1.228-.268c-.318-.065-.594.081-.708.382zm2.522-7.347l-.472 1.391c-.13.391.049.716.448.806l1.106.244c.358.081.635-.065.716-.423l.432-1.4c.13-.39-.057-.675-.456-.764l-1.115-.245c-.317-.073-.594.074-.667.391h.008zm4.459 11.359l1.668.366c.358.081.635-.065.716-.423.155-.505.366-1.082.496-1.676.13-.39-.057-.676-.455-.765l-1.587-.35c-.317-.065-.602.081-.708.382-.171.586-.382 1.164-.537 1.709-.122.35.057.675.415.757h-.008zm4.605-7.763l.35-1.415c.13-.39-.057-.676-.455-.765l-1.351-.293a.617.617 0 00-.716.423l-.391 1.408c-.122.39.057.675.456.764l1.383.302a.617.617 0 00.716-.424h.008zm45.728 9.415l-4.15-1.14c-.309-.081-.667-.016-.903.22-.496.415-.976.781-1.424 1.204-.911.716-.773 1.432.366 1.741l4.305 1.18c.585.163.87.66.707 1.245l-.748 2.742c-.163.586-.659.871-1.245.708l-11.424-3.133c-.586-.162-1.082.122-1.245.708l-.13.472c-.163.586.122 1.082.708 1.245l9.666 2.645c.586.162.871.659.708 1.244l-.732 2.661c-.163.586-.659.871-1.245.708l-9.666-2.644c-.586-.163-1.083.122-1.245.708l-.903 3.287c-.163.586-.659.87-1.245.708l-3.678-1.009c-.586-.163-.871-.659-.708-1.245l.903-3.287c.163-.586-.122-1.091-.708-1.245l-8.925-2.441c-.586-.163-.871-.659-.708-1.245l.732-2.66c.163-.587.659-.872 1.245-.709l8.926 2.441c.585.163 1.082-.122 1.245-.708l.13-.472c.163-.585-.122-1.09-.708-1.245l-11.155-3.05c-.586-.163-.871-.66-.708-1.246l.748-2.742c.163-.585.659-.87 1.245-.708l4.776 1.31c.904.245 1.4-.203 1.237-1.13-.106-.7-.277-1.465-.423-2.132l.122-.13-.032-.05-5.558-1.52c-.586-.164-.87-.66-.708-1.246l.749-2.742c.163-.586.659-.87 1.245-.708l11.977 3.28c.586.162 1.082-.123 1.245-.708l.073-.277c.163-.586-.122-1.082-.708-1.245l-8.218-2.254c-.586-.163-.87-.659-.708-1.245l.741-2.701c.162-.586.659-.87 1.245-.708l8.218 2.254c.585.163 1.09-.122 1.244-.708l.277-1.017c.163-.586.659-.87 1.245-.708l3.678 1.009c.586.163.87.66.708 1.245l-.277 1.017c-.163.586.122 1.082.708 1.245l8.69 2.376c.586.162.87.659.708 1.245l-.741 2.701c-.163.586-.659.87-1.245.708l-8.69-2.376c-.585-.163-1.082.122-1.244.708l-.074.276c-.162.586.122 1.083.708 1.245l12.286 3.369c.586.163.871.659.708 1.245l-.748 2.742c-.163.586-.659.87-1.245.708v-.017zm-19.691-1.693l5.794 1.587c.195.057.463 0 .594-.171.585-.594 1.163-1.326 1.7-2.059.326-.415.179-.789-.293-.92l-7.827-2.147c-.627-.171-.92.13-.757.757.147.838.309 1.643.358 2.367 0 .293.195.521.431.578v.008zM115.058 209.99a2.45 2.45 0 01-2.157-1.279L.306 3.643A2.453 2.453 0 011.28.303a2.464 2.464 0 013.34.973l112.596 205.078a2.465 2.465 0 01-2.158 3.646v-.01zm571.947 0a2.462 2.462 0 01-2.157-3.646L797.452 1.276a2.462 2.462 0 014.315 2.367L689.162 208.721a2.468 2.468 0 01-2.157 1.279v-.01z" fill="#fff" stroke-width="0" id="_レイヤー_1-2" data-name="レイヤー 1"/></svg>