<?xml version="1.0" encoding="UTF-8"?>
<svg id="_レイヤー_2" data-name="レイヤー 2" xmlns="http://www.w3.org/2000/svg" viewBox="0 0 802.03 210">
  <defs>
    <style>
      .cls-1 {
        fill: none;
        stroke: #fff;
        stroke-linecap: round;
        stroke-linejoin: round;
        stroke-width: 1.2px;
      }

      .cls-2 {
        fill: #fff;
      }
    </style>
  </defs>
  <g id="_レイヤー_1-2" data-name="レイヤー 1">
    <g>
      <path id="uuid-c71b9e9c-d681-4217-880a-5c04c65abfc4" data-name=" レイヤー 1-2" class="cls-2" d="M322.05,103.44h4.18c1.47-.01,2.94-.11,4.4-.28.94-.11,1.55.44,1.55,1.38v5.34c0,.88-.55,1.43-1.43,1.38-1.43,0-2.92-.06-4.02-.06h-4.4c-.88,0-1.43.55-1.38,1.43.11,7.05.33,14.31.44,21.2.06,3.74-2.03,5.89-6.49,5.89-3.03,0-5.56-.06-8.32-.22-.66,0-1.21-.55-1.27-1.21l-.44-5.34c-.11-.99.5-1.6,1.55-1.49,1.87.22,3.74.33,5.01.33s1.77-.66,1.77-2.21v-7.6c-.06-2.31-.99-2.64-2.59-.94-4.57,4.84-10.9,9.8-17.07,13.21-.56.29-1.25.15-1.65-.33l-3.86-4.4c-.72-.83-.55-1.71.44-2.15,7.92-4.02,14.75-9.25,18.94-14.09,1.1-1.21.61-2.09-.99-2.09h-9.8c-1.55,0-3.42.06-5.07.11-.88.06-1.43-.5-1.43-1.38v-5.34c0-.94.66-1.49,1.6-1.43,1.49.16,3.36.28,4.73.28h14.87c.82,0,1.38-.61,1.38-1.43l-.11-1.6c-.06-1.21-.22-2.75-.38-4.3-.06-.94.44-1.55,1.43-1.55h5.73c.94,0,1.49.66,1.38,1.6-.11,1.43-.16,2.98-.11,4.24l.06,1.65c0,.83.55,1.38,1.38,1.38h0s0,0,0,0ZM373.15,97.66c.39-.06.83,0,1.15.28l3.58,2.59c.6.44.77,1.21.33,1.81v.11c-.44.83-1.05,1.81-1.43,2.64-1.6,3.64-4.08,8.36-7.16,12.78-.44.66-.33,1.38.22,1.87,4.4,3.96,9.53,9.3,12.44,12.72.5.6.44,1.38-.16,1.93l-5.12,4.46c-.72.6-1.49.5-2.04-.28-2.97-4.02-6.66-8.2-10.63-12.06-.6-.61-1.38-.61-1.98,0-5.01,5.06-11.12,9.69-17.29,12.83-.5.28-1.15.16-1.59-.28l-4.4-4.57c-.88-.94-.66-1.82.5-2.31,7.76-3.3,15.14-9.14,19.38-13.93,2.86-3.25,5.34-6.99,6.66-10.07.44-1.05-.11-1.77-1.21-1.77h-14.37c-1.71,0-3.69.16-5.23.33-.88.06-1.49-.5-1.49-1.37v-5.95c0-.94.6-1.49,1.6-1.43,1.77.16,3.96.28,5.12.28h17.45c2.2,0,4.24-.28,5.56-.61h.11,0ZM425.86,97.66c.39-.06.83,0,1.16.28l3.58,2.59c.6.44.77,1.21.33,1.81v.11c-.44.83-1.05,1.81-1.43,2.64-1.59,3.64-4.08,8.36-7.16,12.78-.44.66-.33,1.38.22,1.87,4.4,3.96,9.53,9.3,12.44,12.72.5.6.44,1.38-.16,1.93l-5.12,4.46c-.72.6-1.49.5-2.03-.28-2.97-4.02-6.66-8.2-10.63-12.06-.6-.61-1.38-.61-1.99,0-5.01,5.06-11.12,9.69-17.29,12.83-.5.28-1.15.16-1.6-.28l-4.4-4.57c-.88-.94-.66-1.82.5-2.31,7.76-3.3,15.14-9.14,19.38-13.93,2.86-3.25,5.34-6.99,6.66-10.07.44-1.05-.11-1.77-1.21-1.77h-14.37c-1.71,0-3.68.16-5.23.33-.88.06-1.49-.5-1.49-1.37v-5.95c0-.94.6-1.49,1.59-1.43,1.77.16,3.96.28,5.12.28h17.45c2.2,0,4.24-.28,5.56-.61h.11,0ZM475.99,95.51l6.72,2.48c.93.38,1.21,1.16.72,2.03-.53,1.04-1.04,2.09-1.55,3.14-1.65,3.74-3.91,7.98-6.88,12.56-.44.61-.33,1.38.28,1.81,3.74,3.03,7.82,6.61,10.73,9.3.6.5.66,1.27.11,1.87l-4.57,5.23c-.6.66-1.43.66-2.03.06-2.86-2.92-6.11-5.95-9.58-8.92-.6-.55-1.38-.5-1.93.16-4.02,4.79-9.47,10.51-15.96,14.59h-.11c-.5.28-1.1.22-1.6-.16l-5.29-4.84c-.93-.83-.77-1.71.28-2.31,6-3.19,11.23-7.76,15.64-12.88.55-.66.5-1.43-.22-1.99-3.42-2.53-7.54-5.45-10.85-7.49-.88-.5-1.05-1.32-.38-2.09l3.8-4.4c.44-.55,1.1-.66,1.71-.33,3.08,1.81,7.27,4.62,11.01,7.27.72.5,1.49.33,1.93-.38,2.25-3.47,4.02-7.1,5.17-10.35.28-.99.66-2.21.94-3.3.22-.99.99-1.43,1.93-1.05h0s0,0,0,0ZM502.69,131.9c0-3.25,2.59-5.79,6.17-5.79s6.17,2.53,6.17,5.79-2.59,5.73-6.17,5.73-6.17-2.37-6.17-5.73h0ZM505.44,121.89l-1.98-15.25v-.11l-.28-7.21c-.06-.88.5-1.43,1.38-1.43h8.64c.88,0,1.43.55,1.38,1.43l-.28,7.21v.11l-1.98,15.25c-.11.72-.66,1.21-1.38,1.21h-4.12c-.72,0-1.27-.5-1.38-1.21h0,0ZM395.81,63.9l3.45.37c.49.07.77.43.64.92l-.43,1.93c-.07.46-.15.92-.28,1.38-.12.58.19.92.77.89h.98c3.3,0,5.5,1.56,5.5,5.83,0,3.39-.4,8.01-1.62,10.54-.98,2.07-2.66,2.82-5.01,2.82-.92,0-2.05-.12-2.99-.31-.31-.07-.52-.33-.58-.61l-.45-2.9c-.12-.7.24-1.04.98-.92.89.19,1.83.33,2.33.33.92,0,1.56-.31,1.95-1.1.73-1.44,1.07-4.7,1.07-7.36,0-2.11-.89-2.35-2.66-2.35-.21,0-.49,0-.8.03-.33.02-.61.26-.7.58-1.13,4.25-3.06,10.36-5.26,14.21-.19.33-.6.46-.95.31l-3.03-1.22c-.55-.21-.67-.68-.33-1.16,2.2-3.36,3.82-7.76,4.83-11.28.15-.55-.12-.83-.64-.76l-.92.12c-.71.09-1.81.24-2.72.4-.49.06-.85-.21-.89-.7l-.24-2.96c-.03-.52.31-.86.82-.86.82.03,1.62,0,2.45-.03.73-.03,1.65-.07,2.72-.15.33,0,.61-.28.67-.61.31-1.65.46-3.18.46-4.56.03-.52.33-.85.89-.8h.02,0ZM410.85,67.23c-.31.12-.4.4-.21.7,1.5,2.57,3.27,6.63,4.12,9.19.15.4-.03.76-.4.92l-2.96,1.38c-.55.24-.95.03-1.1-.55-.73-2.94-2.23-6.81-3.88-9.35-.33-.49-.21-.95.33-1.2l.82-.33c.45-.21.61-.64.4-1.07-.37-.68-.73-1.38-1.1-1.99-.28-.49-.15-.94.37-1.16l1.29-.52c.33-.15.73-.04.92.28.58.92,1.22,2.11,1.68,2.99.15.28.03.58-.28.7h0s0,0,0,0ZM414.24,65.89l-1.32.58c-.4.15-.8,0-1.01-.37-.43-.87-.91-1.72-1.44-2.54-.31-.52-.19-.98.37-1.2l1.25-.49c.33-.15.73-.03.92.28.55.89,1.08,1.8,1.59,2.72.21.4.07.82-.37,1.01h0s0,0,0,0ZM115.06,209.99c-.9,0-1.73-.49-2.16-1.28L.31,3.64C-.35,2.46.08.96,1.27.31c0,0,0,0,.01,0,1.19-.65,2.68-.22,3.34.97l112.6,205.08c.65,1.19.21,2.69-.98,3.34-.36.2-.76.3-1.18.3,0,0,0,0,0,0ZM687.01,209.99c-1.36,0-2.46-1.1-2.46-2.46,0-.41.1-.82.3-1.18L797.45,1.28c.69-1.17,2.2-1.56,3.37-.87,1.12.66,1.53,2.08.94,3.24l-112.61,205.08c-.43.79-1.26,1.28-2.16,1.28h0Z"/>
      <g>
        <g>
          <path class="cls-1" d="M146.75,44.66c3.44-.24,7.59-.44,12.43-.59l.13,3.56c-4.85.15-8.99.35-12.43.59l-.13-3.56ZM147.19,53.61c3.29-.18,7.29-.34,12.01-.49l.13,3.56c-4.46.13-8.46.3-12.01.49l-.13-3.56ZM170.36,44.07l3.64-.23c.43,7.69-.99,13.75-4.23,18.19-3.25,4.44-8.83,7.95-16.75,10.55l-1.35-3.38c7.26-2.37,12.28-5.43,15.08-9.18,2.79-3.75,4-9.07,3.61-15.95Z"/>
          <path class="cls-1" d="M187.75,41.24l3.54-1.37,2.16,5.44,13.41-5.66,1.34,3.18c-.03,2.04-.41,4.11-1.12,6.21-.72,2.1-1.68,3.93-2.88,5.5l-3.15-1.79c1.95-2.62,3.1-5.4,3.47-8.33l-9.79,4.09,5.39,13.72-3.54,1.37-5.37-13.61-6.23,2.64-1.33-3.18,6.3-2.66-2.18-5.55Z"/>
          <path class="cls-1" d="M217.62,33.82l1.19-3.59c4.32,1.28,8.29,2.63,11.91,4.05l-1.34,3.61c-4.34-1.67-8.26-3.02-11.77-4.07ZM242.02,29.78l3.68.19c-.13,14.18-7.76,23.21-22.88,27.1l-1.13-3.53c6.78-1.8,11.82-4.63,15.11-8.48,3.29-3.85,5.03-8.95,5.23-15.28Z"/>
          <path class="cls-1" d="M257.13,39.96l-2.07-15.89,3.93-.51,2.07,15.89-3.93.51ZM277.33,21.17l1.23,9.46c.79,6.07-.04,10.8-2.51,14.19-2.46,3.4-6.79,5.87-12.97,7.43l-1.28-3.43c5.45-1.46,9.11-3.48,10.97-6.06,1.87-2.58,2.47-6.41,1.8-11.51l-1.25-9.57,4-.52Z"/>
          <path class="cls-1" d="M289.51,35.75l-.36-3.76,29.39-2.79.36,3.76-29.39,2.79Z"/>
          <path class="cls-1" d="M340.05,15.27c-.93,4.49-1.27,9.3-1.01,14.43.25,5.13,1.07,9.88,2.44,14.26l-3.5.61c-1.42-4.49-2.27-9.39-2.53-14.69-.26-5.3.09-10.25,1.06-14.87l3.54.26ZM365.37,22.09l-6.11.3.54,10.93c1.64,1.1,3.81,2.88,6.5,5.34l-2.36,2.6c-1.61-1.53-2.96-2.74-4.04-3.62-.29,3.88-2.61,5.93-6.98,6.15-2.57.13-4.58-.35-6.06-1.45-1.47-1.09-2.26-2.69-2.37-4.8-.1-1.96.53-3.54,1.87-4.72s3.31-1.84,5.9-1.97c1.29-.06,2.57.11,3.81.53l-.44-8.81-10.79.54-.16-3.24,10.79-.54-.29-5.75,3.6-.18.29,5.75,6.11-.3.16,3.24ZM356.29,35.15c-1.38-.72-2.72-1.05-4.01-.99-2.88.14-4.26,1.21-4.17,3.2.11,2.28,1.61,3.34,4.48,3.2,1.39-.07,2.38-.44,2.97-1.12s.85-1.75.78-3.21l-.05-1.08Z"/>
          <path class="cls-1" d="M370.81,20.29l-.05-3.24,6.41-.09c.32-1.16.78-2.92,1.37-5.28l3.39.38c-.5,2.17-.88,3.78-1.16,4.84l6.37-.09.04,3.24-7.31.1c-1.76,6.27-3.86,12.36-6.3,18.27l-3.33-1.11c2.44-6.01,4.43-11.71,5.99-17.11l-5.44.08ZM401.81,20.58c-1.88-.31-4.16-.48-6.85-.52l.17,12.38c2.4,1.33,4.87,3.09,7.42,5.26l-2.27,2.62c-1.75-1.42-3.47-2.72-5.17-3.92-.19,2.19-.91,3.78-2.18,4.78-1.27,1-3.19,1.52-5.76,1.56-2.54.04-4.54-.52-5.98-1.66-1.44-1.14-2.18-2.71-2.21-4.7-.03-1.94.65-3.49,2.04-4.64,1.39-1.15,3.38-1.74,5.97-1.78,1.44-.02,2.94.25,4.51.8l-.2-14c4.08-.06,7.69.13,10.85.57l-.35,3.25ZM391.56,34.26c-1.62-.79-3.12-1.18-4.52-1.16-3,.04-4.48,1.12-4.46,3.23.02,1.08.42,1.92,1.22,2.5.8.59,1.91.87,3.32.85,1.73-.02,2.9-.38,3.53-1.06.63-.68.93-1.94.9-3.79v-.58Z"/>
          <path class="cls-1" d="M407.02,17.89l8.1.18.12-5.76,3.6.08-.23,10.33c2.64-2.27,4.73-3.84,6.28-4.71,1.54-.87,2.91-1.29,4.11-1.26,1.58.03,2.7.6,3.35,1.69.65,1.09.94,3.02.88,5.78-.03,1.46-.21,3.12-.54,4.96-.33,1.91-.51,3.55-.54,4.92-.02,1.1.04,1.96.18,2.58s.31,1,.5,1.16c.19.16.44.24.75.25.94.02,2.41-.94,4.42-2.89l1.85,2.6c-1.18,1.25-2.45,2.24-3.81,2.98-1.36.74-2.54,1.1-3.55,1.07-1.51-.03-2.6-.61-3.26-1.75-.66-1.13-.96-3.04-.9-5.73.03-1.25.22-2.9.58-4.96.36-1.98.55-3.62.58-4.92.02-1.08-.04-1.93-.18-2.54s-.31-1.01-.51-1.18c-.2-.17-.46-.26-.77-.27-1.15-.02-4.32,2.28-9.51,6.92l-.35,15.91-3.6-.08.27-12.45c-3.28,3.07-5.44,5.12-6.47,6.12l-2.4-2.43c3.48-3.38,6.47-6.21,8.97-8.48l.1-4.71-8.1-.18.07-3.24Z"/>
          <path class="cls-1" d="M456,32.11l.31-5.39,5.39.31-.31,5.39-5.39-.31Z"/>
          <path class="cls-1" d="M487.46,19.88c-1.43,3.68-2.34,7.62-2.73,11.82-.27,2.87,0,5.33.79,7.4.79,2.06,1.68,3.14,2.66,3.23.67.06,1.61-.58,2.82-1.94s2.47-3.34,3.77-5.94l3.28,1.64c-1.51,3.28-3.25,5.8-5.21,7.56-1.96,1.76-3.73,2.56-5.3,2.42-1.96-.18-3.64-1.71-5.03-4.59-1.4-2.88-1.91-6.25-1.55-10.12.42-4.47,1.38-8.55,2.88-12.24l3.62.77ZM502.51,21.72l3.54-.75c1.31,3.26,2.21,6.9,2.69,10.93.48,4.03.52,8.15.13,12.36l-3.76-.35c.36-3.89.32-7.78-.14-11.66-.46-3.88-1.28-7.39-2.45-10.53Z"/>
          <path class="cls-1" d="M524.17,20.94c-1.71,4.26-2.89,8.93-3.55,14.02-.66,5.09-.7,9.92-.12,14.47l-3.73-.05c-.61-4.68-.57-9.64.11-14.9.68-5.26,1.9-10.08,3.68-14.44l3.62.9ZM527.39,27.49l11.42,1.47.88-6.78,3.57.46-.88,6.78,5.53.71-.41,3.21-5.53-.71-.62,4.82c-.44,3.38-1.07,5.96-1.89,7.74-.82,1.78-2,3.09-3.54,3.94-1.54.84-3.75,1.45-6.62,1.83l-.73-3.36c1.26-.18,2.26-.35,3.01-.52.75-.17,1.47-.43,2.17-.77.7-.35,1.23-.73,1.6-1.15.37-.42.72-1.03,1.07-1.8.34-.78.61-1.65.79-2.62.19-.97.38-2.21.57-3.74l.62-4.82-11.43-1.47.42-3.21Z"/>
          <path class="cls-1" d="M569.06,46.96c-1.39,1.04-3.21,1.37-5.46,1-2.06-.34-3.65-1.28-4.77-2.81-1.12-1.53-1.52-3.3-1.19-5.29.33-1.99,1.27-3.53,2.82-4.62,1.55-1.09,3.36-1.47,5.42-1.13,1.56.26,2.9.84,4.02,1.76h.07s.47-2.83.47-2.83l-17.41-2.87.5-3.02,17.41,2.87.7-4.26,3.55.58-.7,4.26,9.59,1.58-.5,3.02-9.59-1.58-1.22,7.39c.3,1.44.3,3.04,0,4.82-.58,3.55-2.01,6.1-4.28,7.63-2.27,1.54-5.7,2.2-10.29,2.01l-.02-3.43c3.48.14,6.02-.18,7.63-.93,1.61-.76,2.69-2.07,3.24-3.95,0-.02.01-.05.03-.07s.03-.04.03-.07l-.06-.05ZM562.86,37.99c-.89.58-1.42,1.41-1.59,2.47-.17,1.07.06,2.02.72,2.85.65.84,1.58,1.35,2.79,1.55,1.18.2,2.21,0,3.09-.59.88-.59,1.4-1.41,1.58-2.48.18-1.07-.06-2.02-.7-2.85-.64-.83-1.55-1.35-2.74-1.55-1.21-.2-2.26,0-3.14.58Z"/>
          <path class="cls-1" d="M593.81,50.7c-2.15,4-4.68,7.43-7.61,10.3l-2.6-2.61c2.76-2.8,5.19-6,7.28-9.59l2.92,1.91ZM591.87,46.09c-1.62-2.28-3.4-4.51-5.34-6.69l2.66-2.11c2.06,2.2,3.86,4.4,5.4,6.59l-2.72,2.21ZM589.63,31.94l2.7-2.1c1.99,2.18,3.61,4.16,4.87,5.93l-2.72,2.21c-1.42-1.97-3.03-3.98-4.85-6.04ZM594.3,41.1c3.48-2.73,6.36-6.14,8.62-10.24l3.35,1.41c-.36.69-.75,1.38-1.19,2.08l16.03,3.21-.62,3.11-17.33-3.47c-.37.51-.97,1.25-1.8,2.21l17.86,3.58c-.67,2.49-1.47,5.26-2.4,8.33l2.19.44-.62,3.11-2.51-.5c-.39,1.34-.95,3.11-1.69,5.32l2.05.41-.61,3.04-2.4-.48c-.03.14-.09.34-.19.59-.1.25-.17.43-.22.54-.41,1.19-.94,1.95-1.58,2.27-.64.32-1.64.35-3.01.08-.92-.18-2.15-.47-3.68-.85l.42-3c.79.21,1.79.43,2.99.67.56.11.92.12,1.08.03.15-.09.34-.45.56-1.06l-13.17-2.64c-.1.27-.27.67-.49,1.19-.23.52-.39.89-.48,1.12l-3.55-.97c1.39-3.29,2.71-6.71,3.96-10.26l-2.12-.42.62-3.11,2.54.51c.39-1.07.93-2.76,1.64-5.07-.63.58-1.37,1.21-2.21,1.87l-2.04-3.02ZM602.29,57.28c.67-1.9,1.28-3.66,1.83-5.29l-4.62-.93c-.64,1.83-1.28,3.6-1.94,5.3l4.74.91ZM605.13,48.96c.27-.88.83-2.66,1.66-5.36l-4.55-.91c-.55,1.77-1.13,3.56-1.73,5.34l4.62.93ZM605.75,57.97l4.84.97c.73-2.2,1.3-3.97,1.69-5.32l-4.7-.94c-.55,1.63-1.16,3.39-1.83,5.29ZM608.56,49.65l4.62.93c.7-2.28,1.23-4.07,1.59-5.37l-4.55-.91c-.83,2.7-1.39,4.48-1.66,5.36Z"/>
          <path class="cls-1" d="M634.91,59.7l-13.32-3.14.72-3.05,7.92,1.87c-.37-2.63-.71-4.8-1.02-6.53l-5.85-1.38.73-3.08,13.67,3.22.76-3.22-11.74-2.76.69-2.91,11.74,2.76.62-2.63,3.85.91-.62,2.63,11.74,2.76-.68,2.91-11.74-2.76-.76,3.22,13.67,3.22-.73,3.08-5.36-1.26c-1.23,1.78-2.67,3.54-4.31,5.27l7.92,1.86-.72,3.05-13.32-3.14-.85,3.61,12.26,2.89-.68,2.87-12.26-2.89-1.24,5.26-3.85-.91,1.24-5.26-12.26-2.89.68-2.87,12.26,2.89.85-3.61ZM634.12,56.3l6.59,1.55c1.61-1.62,3.1-3.36,4.45-5.24l-11.95-2.81c.34,1.91.64,4.07.91,6.5Z"/>
        </g>
        <g>
          <path class="cls-2" d="M146.75,44.66c3.44-.24,7.59-.44,12.43-.59l.13,3.56c-4.85.15-8.99.35-12.43.59l-.13-3.56ZM147.19,53.61c3.29-.18,7.29-.34,12.01-.49l.13,3.56c-4.46.13-8.46.3-12.01.49l-.13-3.56ZM170.36,44.07l3.64-.23c.43,7.69-.99,13.75-4.23,18.19-3.25,4.44-8.83,7.95-16.75,10.55l-1.35-3.38c7.26-2.37,12.28-5.43,15.08-9.18,2.79-3.75,4-9.07,3.61-15.95Z"/>
          <path class="cls-2" d="M187.75,41.24l3.54-1.37,2.16,5.44,13.41-5.66,1.34,3.18c-.03,2.04-.41,4.11-1.12,6.21-.72,2.1-1.68,3.93-2.88,5.5l-3.15-1.79c1.95-2.62,3.1-5.4,3.47-8.33l-9.79,4.09,5.39,13.72-3.54,1.37-5.37-13.61-6.23,2.64-1.33-3.18,6.3-2.66-2.18-5.55Z"/>
          <path class="cls-2" d="M217.62,33.82l1.19-3.59c4.32,1.28,8.29,2.63,11.91,4.05l-1.34,3.61c-4.34-1.67-8.26-3.02-11.77-4.07ZM242.02,29.78l3.68.19c-.13,14.18-7.76,23.21-22.88,27.1l-1.13-3.53c6.78-1.8,11.82-4.63,15.11-8.48,3.29-3.85,5.03-8.95,5.23-15.28Z"/>
          <path class="cls-2" d="M257.13,39.96l-2.07-15.89,3.93-.51,2.07,15.89-3.93.51ZM277.33,21.17l1.23,9.46c.79,6.07-.04,10.8-2.51,14.19-2.46,3.4-6.79,5.87-12.97,7.43l-1.28-3.43c5.45-1.46,9.11-3.48,10.97-6.06,1.87-2.58,2.47-6.41,1.8-11.51l-1.25-9.57,4-.52Z"/>
          <path class="cls-2" d="M289.51,35.75l-.36-3.76,29.39-2.79.36,3.76-29.39,2.79Z"/>
          <path class="cls-2" d="M340.05,15.27c-.93,4.49-1.27,9.3-1.01,14.43.25,5.13,1.07,9.88,2.44,14.26l-3.5.61c-1.42-4.49-2.27-9.39-2.53-14.69-.26-5.3.09-10.25,1.06-14.87l3.54.26ZM365.37,22.09l-6.11.3.54,10.93c1.64,1.1,3.81,2.88,6.5,5.34l-2.36,2.6c-1.61-1.53-2.96-2.74-4.04-3.62-.29,3.88-2.61,5.93-6.98,6.15-2.57.13-4.58-.35-6.06-1.45-1.47-1.09-2.26-2.69-2.37-4.8-.1-1.96.53-3.54,1.87-4.72s3.31-1.84,5.9-1.97c1.29-.06,2.57.11,3.81.53l-.44-8.81-10.79.54-.16-3.24,10.79-.54-.29-5.75,3.6-.18.29,5.75,6.11-.3.16,3.24ZM356.29,35.15c-1.38-.72-2.72-1.05-4.01-.99-2.88.14-4.26,1.21-4.17,3.2.11,2.28,1.61,3.34,4.48,3.2,1.39-.07,2.38-.44,2.97-1.12s.85-1.75.78-3.21l-.05-1.08Z"/>
          <path class="cls-2" d="M370.81,20.29l-.05-3.24,6.41-.09c.32-1.16.78-2.92,1.37-5.28l3.39.38c-.5,2.17-.88,3.78-1.16,4.84l6.37-.09.04,3.24-7.31.1c-1.76,6.27-3.86,12.36-6.3,18.27l-3.33-1.11c2.44-6.01,4.43-11.71,5.99-17.11l-5.44.08ZM401.81,20.58c-1.88-.31-4.16-.48-6.85-.52l.17,12.38c2.4,1.33,4.87,3.09,7.42,5.26l-2.27,2.62c-1.75-1.42-3.47-2.72-5.17-3.92-.19,2.19-.91,3.78-2.18,4.78-1.27,1-3.19,1.52-5.76,1.56-2.54.04-4.54-.52-5.98-1.66-1.44-1.14-2.18-2.71-2.21-4.7-.03-1.94.65-3.49,2.04-4.64,1.39-1.15,3.38-1.74,5.97-1.78,1.44-.02,2.94.25,4.51.8l-.2-14c4.08-.06,7.69.13,10.85.57l-.35,3.25ZM391.56,34.26c-1.62-.79-3.12-1.18-4.52-1.16-3,.04-4.48,1.12-4.46,3.23.02,1.08.42,1.92,1.22,2.5.8.59,1.91.87,3.32.85,1.73-.02,2.9-.38,3.53-1.06.63-.68.93-1.94.9-3.79v-.58Z"/>
          <path class="cls-2" d="M407.02,17.89l8.1.18.12-5.76,3.6.08-.23,10.33c2.64-2.27,4.73-3.84,6.28-4.71,1.54-.87,2.91-1.29,4.11-1.26,1.58.03,2.7.6,3.35,1.69.65,1.09.94,3.02.88,5.78-.03,1.46-.21,3.12-.54,4.96-.33,1.91-.51,3.55-.54,4.92-.02,1.1.04,1.96.18,2.58s.31,1,.5,1.16c.19.16.44.24.75.25.94.02,2.41-.94,4.42-2.89l1.85,2.6c-1.18,1.25-2.45,2.24-3.81,2.98-1.36.74-2.54,1.1-3.55,1.07-1.51-.03-2.6-.61-3.26-1.75-.66-1.13-.96-3.04-.9-5.73.03-1.25.22-2.9.58-4.96.36-1.98.55-3.62.58-4.92.02-1.08-.04-1.93-.18-2.54s-.31-1.01-.51-1.18c-.2-.17-.46-.26-.77-.27-1.15-.02-4.32,2.28-9.51,6.92l-.35,15.91-3.6-.08.27-12.45c-3.28,3.07-5.44,5.12-6.47,6.12l-2.4-2.43c3.48-3.38,6.47-6.21,8.97-8.48l.1-4.71-8.1-.18.07-3.24Z"/>
          <path class="cls-2" d="M456,32.11l.31-5.39,5.39.31-.31,5.39-5.39-.31Z"/>
          <path class="cls-2" d="M487.46,19.88c-1.43,3.68-2.34,7.62-2.73,11.82-.27,2.87,0,5.33.79,7.4.79,2.06,1.68,3.14,2.66,3.23.67.06,1.61-.58,2.82-1.94s2.47-3.34,3.77-5.94l3.28,1.64c-1.51,3.28-3.25,5.8-5.21,7.56-1.96,1.76-3.73,2.56-5.3,2.42-1.96-.18-3.64-1.71-5.03-4.59-1.4-2.88-1.91-6.25-1.55-10.12.42-4.47,1.38-8.55,2.88-12.24l3.62.77ZM502.51,21.72l3.54-.75c1.31,3.26,2.21,6.9,2.69,10.93.48,4.03.52,8.15.13,12.36l-3.76-.35c.36-3.89.32-7.78-.14-11.66-.46-3.88-1.28-7.39-2.45-10.53Z"/>
          <path class="cls-2" d="M524.17,20.94c-1.71,4.26-2.89,8.93-3.55,14.02-.66,5.09-.7,9.92-.12,14.47l-3.73-.05c-.61-4.68-.57-9.64.11-14.9.68-5.26,1.9-10.08,3.68-14.44l3.62.9ZM527.39,27.49l11.42,1.47.88-6.78,3.57.46-.88,6.78,5.53.71-.41,3.21-5.53-.71-.62,4.82c-.44,3.38-1.07,5.96-1.89,7.74-.82,1.78-2,3.09-3.54,3.94-1.54.84-3.75,1.45-6.62,1.83l-.73-3.36c1.26-.18,2.26-.35,3.01-.52.75-.17,1.47-.43,2.17-.77.7-.35,1.23-.73,1.6-1.15.37-.42.72-1.03,1.07-1.8.34-.78.61-1.65.79-2.62.19-.97.38-2.21.57-3.74l.62-4.82-11.43-1.47.42-3.21Z"/>
          <path class="cls-2" d="M569.06,46.96c-1.39,1.04-3.21,1.37-5.46,1-2.06-.34-3.65-1.28-4.77-2.81-1.12-1.53-1.52-3.3-1.19-5.29.33-1.99,1.27-3.53,2.82-4.62,1.55-1.09,3.36-1.47,5.42-1.13,1.56.26,2.9.84,4.02,1.76h.07s.47-2.83.47-2.83l-17.41-2.87.5-3.02,17.41,2.87.7-4.26,3.55.58-.7,4.26,9.59,1.58-.5,3.02-9.59-1.58-1.22,7.39c.3,1.44.3,3.04,0,4.82-.58,3.55-2.01,6.1-4.28,7.63-2.27,1.54-5.7,2.2-10.29,2.01l-.02-3.43c3.48.14,6.02-.18,7.63-.93,1.61-.76,2.69-2.07,3.24-3.95,0-.02.01-.05.03-.07s.03-.04.03-.07l-.06-.05ZM562.86,37.99c-.89.58-1.42,1.41-1.59,2.47-.17,1.07.06,2.02.72,2.85.65.84,1.58,1.35,2.79,1.55,1.18.2,2.21,0,3.09-.59.88-.59,1.4-1.41,1.58-2.48.18-1.07-.06-2.02-.7-2.85-.64-.83-1.55-1.35-2.74-1.55-1.21-.2-2.26,0-3.14.58Z"/>
          <path class="cls-2" d="M593.81,50.7c-2.15,4-4.68,7.43-7.61,10.3l-2.6-2.61c2.76-2.8,5.19-6,7.28-9.59l2.92,1.91ZM591.87,46.09c-1.62-2.28-3.4-4.51-5.34-6.69l2.66-2.11c2.06,2.2,3.86,4.4,5.4,6.59l-2.72,2.21ZM589.63,31.94l2.7-2.1c1.99,2.18,3.61,4.16,4.87,5.93l-2.72,2.21c-1.42-1.97-3.03-3.98-4.85-6.04ZM594.3,41.1c3.48-2.73,6.36-6.14,8.62-10.24l3.35,1.41c-.36.69-.75,1.38-1.19,2.08l16.03,3.21-.62,3.11-17.33-3.47c-.37.51-.97,1.25-1.8,2.21l17.86,3.58c-.67,2.49-1.47,5.26-2.4,8.33l2.19.44-.62,3.11-2.51-.5c-.39,1.34-.95,3.11-1.69,5.32l2.05.41-.61,3.04-2.4-.48c-.03.14-.09.34-.19.59-.1.25-.17.43-.22.54-.41,1.19-.94,1.95-1.58,2.27-.64.32-1.64.35-3.01.08-.92-.18-2.15-.47-3.68-.85l.42-3c.79.21,1.79.43,2.99.67.56.11.92.12,1.08.03.15-.09.34-.45.56-1.06l-13.17-2.64c-.1.27-.27.67-.49,1.19-.23.52-.39.89-.48,1.12l-3.55-.97c1.39-3.29,2.71-6.71,3.96-10.26l-2.12-.42.62-3.11,2.54.51c.39-1.07.93-2.76,1.64-5.07-.63.58-1.37,1.21-2.21,1.87l-2.04-3.02ZM602.29,57.28c.67-1.9,1.28-3.66,1.83-5.29l-4.62-.93c-.64,1.83-1.28,3.6-1.94,5.3l4.74.91ZM605.13,48.96c.27-.88.83-2.66,1.66-5.36l-4.55-.91c-.55,1.77-1.13,3.56-1.73,5.34l4.62.93ZM605.75,57.97l4.84.97c.73-2.2,1.3-3.97,1.69-5.32l-4.7-.94c-.55,1.63-1.16,3.39-1.83,5.29ZM608.56,49.65l4.62.93c.7-2.28,1.23-4.07,1.59-5.37l-4.55-.91c-.83,2.7-1.39,4.48-1.66,5.36Z"/>
          <path class="cls-2" d="M634.91,59.7l-13.32-3.14.72-3.05,7.92,1.87c-.37-2.63-.71-4.8-1.02-6.53l-5.85-1.38.73-3.08,13.67,3.22.76-3.22-11.74-2.76.69-2.91,11.74,2.76.62-2.63,3.85.91-.62,2.63,11.74,2.76-.68,2.91-11.74-2.76-.76,3.22,13.67,3.22-.73,3.08-5.36-1.26c-1.23,1.78-2.67,3.54-4.31,5.27l7.92,1.86-.72,3.05-13.32-3.14-.85,3.61,12.26,2.89-.68,2.87-12.26-2.89-1.24,5.26-3.85-.91,1.24-5.26-12.26-2.89.68-2.87,12.26,2.89.85-3.61ZM634.12,56.3l6.59,1.55c1.61-1.62,3.1-3.36,4.45-5.24l-11.95-2.81c.34,1.91.64,4.07.91,6.5Z"/>
        </g>
      </g>
    </g>
  </g>
</svg>